<?xml version="1.0" encoding="UTF-8"?><svg id="a" xmlns="http://www.w3.org/2000/svg" viewBox="0 0 1045.19 314.64"><path d="M995.7,74.06c-11.56,0-20.65-9.08-20.68-20.63-.03-11.22,9.15-20.29,20.53-20.3,11.61-.01,20.58,8.76,20.6,20.16,.02,11.7-8.92,20.78-20.45,20.77Z" style="fill:#990101;"/><path d="M10.4,199.83c.85-.71,1.6-1.66,2.58-2.05,.86-.35,1.97-.08,2.97-.08,144.34,0,288.68,0,433.02,0,1.25,0,2.49,.07,3.74,.11-1.59,3.48-3.48,6.86-4.66,10.48-1.06,3.25,.33,6.07,3.1,8.16,3.99,3,7.91,6.09,11.89,9.1,3.76,2.83,6.76,3.05,10.57,.07,3.4-2.67,6.37-5.88,9.83-9.13,1.49,.71,3.25,1.54,5.38,2.55-.38,2.18-.83,4.33-1.13,6.51-.29,2.09-.63,4.2-.59,6.3,.1,5.1,2.32,7.64,7.24,8.99,3.71,1.02,7.38,2.22,11.06,3.34-1.62,.06-3.24,.17-4.86,.17-154.53,0-309.07,.01-463.6,0-8.87,0-17.73-.11-26.6-.17,1.12-.74,2.21-1.55,3.37-2.22,1.25-.71,2.58-1.28,4.85-2.39-3.22-1.23-5.44-2.07-8.16-3.11,0-12.14,0-24.39,0-36.63Z" style="fill:#339898;"/><path d="M633.84,197.6c.96,.09,1.91,.18,3.07,.29,.12,1.38,.23,2.69,.34,3.99v15.65c2.44-.2,4.38-.37,6.32-.53,1.74,.05,3.49,.16,5.23,.16,117.39,0,234.77,0,352.16,0h5.42c-1.29,1.59-2.2,2.72-3.11,3.84-6.42,6.58-12.85,13.16-19.98,20.46,7.81,7.78,15.77,15.7,23.93,23.83-1.3,0-2.41,0-3.51,0-108.55-.04-217.09-.09-325.64-.11-18.36,0-36.72,.08-55.08,.12-1.85-.11-3.71-.22-6.22-.38,0-5.33,0-10.62,0-15.91v-4.68c-1.79,0-3.25,0-4.72,0-17.16-.05-34.33-.1-51.49-.16,5.84-5.55,4.74-12.66,4.32-19.83,1.89-.64,3.74-1.27,5.91-2.01,1.63,2.38,3.15,4.77,4.85,7.03,5.15,6.84,8.52,7.53,15.9,3.39,3.05-1.71,6.1-3.39,9.14-5.12,5.7-3.25,7.31-6.78,5.47-13.07-.93-3.19-2.53-6.18-3.99-9.67,1.11-1.21,2.48-2.72,3.93-4.29,2.97,1.87,5.41,3.57,8.01,5.01,6.94,3.85,10.93,2.98,15.7-3.15,1.3-1.67,2.7-3.25,4.06-4.87Zm71.47,43.05c.07,6.71,5.84,12.28,12.61,12.17,6.69-.1,12.36-5.97,12.19-12.63-.17-6.59-5.76-11.91-12.46-11.86-6.96,.05-12.42,5.49-12.35,12.32Zm36.75-.05c.05,6.71,5.78,12.29,12.57,12.23,6.68-.06,12.38-5.92,12.24-12.59-.14-6.59-5.72-11.94-12.41-11.91-6.97,.03-12.44,5.45-12.4,12.27Zm92.86,2.44c2.31,3.06,4.69,6.21,6.87,9.09h5.86c-3.34-4.66-6.36-8.87-9.43-13.15,2.91-3.43,5.65-6.65,8.73-10.28h-5.69c-2.89,3.24-5.77,6.45-9.36,10.47-.25-4.17-.43-7.27-.63-10.59-1.65,.09-2.84,.16-4.19,.24v23.31h4.19c.7-3.35-.75-7.28,3.66-9.08Zm-39.19,4.73h-11.62v-18.97h-4.56v23.4h16.19v-4.43Zm-113.7-14.42v19.09c1.86-.1,3.05-.17,4.72-.26v-18.81c2.64-.21,4.81-.39,7.08-.57v-3.89h-19.28c.11,1.53,.19,2.7,.29,3.95,2.42,.16,4.49,.3,7.19,.49Zm207.28,18.85v-18.84c2.65-.21,4.82-.37,7.26-.56-.09-1.53-.15-2.69-.22-3.98h-18.93v4.07c2.4,.16,4.47,.29,7.03,.46v18.86h4.86Zm-25.23-.02v-23.34h-4.62v23.34h4.62Z" style="fill:#339898;"/><path d="M307.23,56.49h38.33c5.19,12.9,10.39,25.8,15.58,38.7,5.19,12.91,10.38,25.83,15.93,39.65,10.77-26.61,21.2-52.41,31.68-78.31h38.81V185.69h-27.9V97.34c-.28-.09-.57-.18-.85-.27-11.93,29.58-23.87,59.16-35.82,88.78h-12.2c-11.88-29.47-23.82-59.08-35.76-88.69-.18,.03-.36,.05-.54,.08v88.44h-27.25V56.49Z" style="fill:#fff;"/><path d="M716.62,72.38c-5.13,6.68-10.13,13.2-15.26,19.88-8-6.86-16.98-11.74-27.35-12.92-6.35-.72-12.9-.26-19.29,.38-2.3,.23-4.75,2.18-6.5,3.96-4.57,4.66-3.99,11.62,1.79,14.57,5.81,2.96,12.19,5,18.51,6.71,10.45,2.83,21.21,4.55,30.89,9.8,10.5,5.69,18.29,13.53,20.09,25.81,2.7,18.42-6.04,34.36-23.1,41.92-21.07,9.34-61.38,8.44-83.35-14.82,4.82-6.81,9.68-13.68,14.74-20.82,2.56,2.11,4.89,4.3,7.48,6.12,13.37,9.38,27.97,13.52,44.22,9.66,2.59-.61,5.15-1.99,7.31-3.58,6.91-5.11,6.76-13.66-.72-17.77-4.71-2.59-10.2-3.83-15.41-5.45-10.1-3.15-20.54-5.43-30.32-9.37-16.96-6.83-23.84-17.65-23.48-34.4,.31-14.41,10.11-28.36,25.33-33.37,25.52-8.4,49.69-5.33,71.56,11.09,.98,.74,1.83,1.65,2.86,2.59Z" style="fill:#fff;"/><path d="M454,130.38c2.5,25.04,14.56,44.35,35.33,58.34,35.83,24.14,83.02,15.7,109.12-19.44,.51-.69,1-1.39,1.56-2.17,1.69,.32,3.27,.62,4.11,.79,4.73,4.1,8.74,8.07,13.25,11.36,4.5,3.29,9.49,5.9,14.79,9.13-2.99,3.9-6.19,8.09-9.46,12.36-7.49,.8-10.72-6.28-16.89-8.53-3.87,3.35-8.07,6.98-12.4,10.73,1.74,5.79,6.83,10.42,6.47,17.23-4.94,2.79-9.8,5.54-14.9,8.42-5.7-3.25-7.19-9.61-10.88-14.5-5.5,1.83-11.1,3.69-16.31,5.42v18.56c-6.15,.86-11.79,1.64-17.58,2.45-4.6-5.29-2.94-12-4.74-18.04-5.55-.41-11.2-.82-16.78-1.23-2.17,5.85-4.29,11.56-6.54,17.59-6.72-1.89-12.4-3.49-19.04-5.36,1.24-6.28,2.38-12.06,3.59-18.24-4.79-2.42-9.87-4.99-15.18-7.67-2.7,3.17-5.33,6.46-8.17,9.55-3.86,4.21-4.88,4.24-9.3,.82-3.06-2.36-6.1-4.74-9.13-7.15-.27-.21-.35-.65-.86-1.69,1.3-2.27,2.67-5.01,4.37-7.54,1.66-2.47,3.66-4.72,5.63-7.22-2.8-3.2-5.81-6.2-8.25-9.59-1.34-1.86-2.43-4.39-2.45-6.63-.18-15.83-.05-31.67-.02-47.49,.26,.02,.48-.06,.66-.24Z" style="fill:#fd9700;"/><path d="M560.56,244.19c17.16,.05,34.33,.11,51.49,.16,1.46,0,2.93,0,4.72,0v4.68c-1.36-.1-2.73-.29-4.09-.29-96.62-.01-193.25-.01-289.87,0-1.25,0-2.5,.07-3.75,.11-3.48,0-6.97,0-10.45,0-11.73,0-23.47,0-35.2,0-3.47,0-6.95,0-10.42,0-5.35,0-10.69,.01-16.04,.02-6.63,0-13.27,0-19.9-.01-6.36-.04-12.71-.13-19.07-.12-21.32,.03-42.63,.09-63.95,.14-6.09,0-12.19-.01-18.28-.02-16.35-.04-32.7-.1-49.05-.12-22.09-.02-44.19,0-66.28-.01-.03-1.52-.06-3.03-.1-4.55,8.87,.06,17.73,.17,26.6,.17,154.53,.01,309.07,0,463.6,0,1.62,0,3.24-.11,4.86-.17,3.36,0,6.71,0,10.07,.01,6.29,.02,12.59,.03,18.88,.05,2.81,2.89,6.2,3.27,10,2.57,5.38-.99,10.81-1.76,16.22-2.62Z" style="fill:#020201;"/><path d="M558.79,56.76c-3.49-9.42,.87-20.07,9.64-21.59,4.57-.79,9.93-.26,14.27,1.4,10.05,3.83,18.43,10.4,25.16,18.86,5.43,6.83,5.97,13.97,1.78,20-3.71,5.34-9.06,6.61-15.11,6.17-.49-.04-.96-.27-1.45-.35-.35-.06-.73-.01-1.77-.01,.44,1.3,.58,2.45,1.16,3.31,29.66,44.07,1.29,103.08-51.76,107.6-41.9,3.57-79.17-33.01-75.14-74.99,4.18-43.64,42.22-69.11,80.53-62.74,4.04,.67,7.95,2.09,11.93,3.16,.37,.08,.74,.16,1.4,.31-.33-.6-.47-.86-.62-1.13Zm10.98-3.99c.36-.15,.73-.31,1.09-.46-.11-.17-.21-.34-.32-.51-.32,.27-.64,.53-.96,.8-.11,.14-.23,.29-.45,.57,.31-.2,.48-.3,.64-.41Zm-8.01,9.99c-16.49-6.63-32.83-7.45-49.1-1.66-16.38,5.83-28.31,17.16-36.26,32.4-14.12,27.08-6.69,61.17,17.15,80.39,23.81,19.2,57.96,19.28,81.72,.24,12.41-9.95,20.9-22.41,23.94-38.11,3.75-19.43-.08-37.36-12.27-53.85,2.59-5.65,5.2-11.36,8.17-17.84-5.98-3.94-12.24-8.07-18.1-11.94-5.64,3.84-10.37,7.06-15.25,10.38Zm31.05,15.03c9.37,1.25,14.99-1.91,16.26-9,.83-4.65-1.14-8.59-3.97-12.03-5.63-6.82-12.39-12.35-20.62-15.69-3.74-1.51-7.83-2.4-11.84-2.93-4.27-.56-7.97,1.24-10.03,5.14-2.25,4.25-3.04,8.71,.06,13.03,.19,.27,.52,.44,.86,.72,.76-.51,1.47-.99,2.13-1.43,.13-6.72,2.32-8.71,8.31-7.57,1.33,.25,2.67,.67,3.91,1.22,7.75,3.41,14.35,8.47,20.3,14.41,2.29,2.28,4.39,5.26,2.64,8.27-1.12,1.93-4.17,2.75-6.36,4.06l-.64-.81c-.3,.77-.6,1.55-1.01,2.6Zm5.29-7.87c-.26-.24-.51-.48-.77-.72-.43,.64-.86,1.28-1.29,1.93,.2,.15,.39,.31,.59,.46,.49-.56,.98-1.11,1.47-1.67Z" style="fill:#fff;"/><path d="M622.99,265.31c18.36-.04,36.72-.12,55.08-.12,108.55,.03,217.09,.07,325.64,.11,1.11,0,2.21,0,3.51,0-8.16-8.13-16.12-16.05-23.93-23.83,7.13-7.3,13.56-13.89,19.98-20.46,3.06,.17,6.12,.33,10.07,.54-8.21,7.94-15.8,15.27-23.72,22.92,8.6,8.39,16.58,16.19,24.56,23.98-.19,.27-.37,.53-.56,.8h-390.63v-3.95Z" style="fill:#020201;"/><path d="M643.58,217.01c-1.94,.16-3.88,.32-6.32,.53v-15.65c1.93,0,3.87,0,6.32,0v15.12Z" style="fill:#020201;"/><path d="M782.63,168.6c5.52-7.88,10.31-14.7,15.15-21.6,3.73,2.83,7.15,5.91,11,8.27,12.71,7.8,26.4,11.04,41.16,7.29,2.68-.68,5.39-2.15,7.53-3.93,6.29-5.24,5.72-13.24-1.28-17.41-3.05-1.82-6.58-2.94-10-3.98-12.02-3.68-24.36-6.51-36.09-10.93-15.4-5.8-23.9-17.16-23.06-34.22,.81-16.61,10.04-28,24.93-33.16,25.27-8.77,49.64-6.06,71.54,10.57,1.07,.81,2.03,1.78,3.22,2.83-5.12,6.76-10.07,13.3-15.17,20.04-7.99-7.18-17.15-11.95-27.68-13.07-6.23-.66-12.63-.1-18.92,.37-1.91,.14-3.95,1.54-5.49,2.87-5.96,5.12-5.51,12.83,1.44,16.3,5.51,2.75,11.59,4.53,17.58,6.1,10.59,2.79,21.44,4.56,31.28,9.83,23.21,12.44,27.55,42.05,8.63,59.81-7.52,7.06-16.63,10.99-26.77,12.24-17.34,2.14-34.52,1.74-50.49-6.36-6.36-3.23-12.09-7.71-18.48-11.85Z" style="fill:#fff;"/><path d="M738.63,56.48h27.38V185.63h-27.38V56.48Z" style="fill:#fff;"/><path d="M180.89,168.14c5.25-7.48,10.04-14.31,15.01-21.38,1.23,1.07,2.33,2.04,3.45,3,13.25,11.33,28.49,16.34,45.79,13.47,3.95-.66,8.11-2.79,11.19-5.4,5.56-4.71,4.74-12.15-1.36-16.13-2.56-1.67-5.51-2.94-8.45-3.82-11.34-3.37-22.79-6.38-34.12-9.79-3.3-.99-6.39-2.76-9.49-4.36-22.42-11.56-21.38-40.24-8.87-53.89,9.1-9.93,20.57-14.13,33.55-15.09,18.29-1.36,35.56,1.63,50.88,12.43,2.13,1.5,4.1,3.21,6.44,5.06-5.2,6.78-10.25,13.35-15.41,20.06-11.6-9.99-24.86-14.44-39.83-13.83-4.8,.2-9.44,.96-13.04,4.61-4.98,5.04-4.53,12.13,1.69,15.43,4.88,2.59,10.36,4.14,15.69,5.78,10.1,3.12,20.49,5.4,30.36,9.1,8.92,3.34,16.25,9.31,20.41,18.29,9.03,19.5,.04,43.43-21.38,51.02-28.81,10.21-56.5,7.25-80.7-13.42-.47-.41-1.07-.67-1.83-1.14Z" style="fill:#fff;"/><path d="M100.19,54.7c24.52-.22,43.12,7.47,56.86,25.26,24.18,31.31,17.33,92.45-35.14,105.99-28.81,7.43-58.15-.58-75.78-25.83-9.74-13.96-12.42-29.72-10.92-46.29,2.13-23.54,14.02-40.87,34.72-52.08,10.09-5.46,21.15-7.26,30.25-7.06Zm42.56,66.57c-.95-5.12-1.47-10.36-2.92-15.33-4.64-15.86-18.72-26.52-34.31-27.17-19.96-.84-32.99,9.08-39.17,25.54-3.09,8.22-3.48,16.78-2.2,25.43,4.8,32.55,37.95,42.27,59.61,28.41,13.27-8.49,18.22-21.53,18.99-36.87Z" style="fill:#fff;"/><path d="M710.46,240.68c-.09-4.23,2.95-7.61,6.97-7.77,4.15-.17,7.52,3.25,7.51,7.61-.01,4.22-3.18,7.58-7.16,7.6-4.04,.02-7.24-3.23-7.32-7.44Z" style="fill:#339898;"/><path d="M747.21,240.19c.15-4.19,3.43-7.39,7.47-7.28,3.97,.1,7.09,3.54,7.01,7.75-.08,4.38-3.49,7.7-7.66,7.45-4-.24-6.97-3.69-6.82-7.92Z" style="fill:#339898;"/><path d="M512.33,116.87c-16.97,1.84-25.33-4.03-28.04-19.83,.72-.91,1.61-2.04,2.71-3.42,5.43,3.98,10.62,7.79,15.9,11.66,3.1-1.3,6.07-2.54,9.29-3.89,.4-3.19,.8-6.37,1.23-9.83-5.18-3.95-10.41-7.93-15.86-12.08,.73-1.21,1.35-2.23,1.88-3.11,13.86-4.08,27.01,5.29,27.48,20.29,7.27,5.4,14.74,11,22.26,16.52,6.03,4.43,12.1,8.8,18.19,13.16,3.2,2.29,6.29,4.44,10.44,5.34,6.69,1.46,11.09,8.22,10.96,15.19-.12,6.57-5.05,13-11.29,14.73-6.76,1.87-14.04-1.19-17.87-7.12-1.5-2.32-3.42-4.55-5.61-6.22-13.87-10.6-27.86-21.03-41.66-31.4Zm60.3,21.97c-4.46,.06-7.49,3.38-7.37,8.07,.11,4.19,3.57,7.59,7.66,7.52,4.52-.08,8-3.62,7.97-8.1-.03-4.67-3.22-7.56-8.25-7.49Z" style="fill:#fff;"/><path d="M523.83,136.48c3.11,2.61,6.21,5.23,9.48,7.98-7.52,10.04-15.04,20.08-22.96,30.65-2.01-.68-3.95-1-5.51-1.95-2.55-1.54-4.89-3.44-7.24-5.29-2.4-1.89-3.09-4.36-1.26-6.89,6.93-9.55,13.99-19.01,20.96-28.46,1.39,.7,2.48,1.24,3.57,1.79l-.03-.1c1.02,.76,2.04,1.53,3.05,2.29,0,0-.07-.02-.07-.02Z" style="fill:#fff;"/><path d="M571.81,68.09c2.92,2.06,5.25,3.7,7.95,5.61-2.92,4.89-5.45,9.88-8.75,14.3-1.41,1.88-4.43,2.56-6.72,3.78-.16-.26-.32-.51-.48-.77-4.59,6.19-9.19,12.38-14.03,18.91-1.42-1.01-2.69-1.91-4.34-3.08,4.69-6.36,9.3-12.62,14.02-19.03-1.67-4.16,.06-7.26,3.13-10.15,3.17-2.98,6.05-6.26,9.21-9.57Z" style="fill:#fff;"/><path d="M520.88,134.31c-.6-1.15-1.19-2.31-1.93-3.74,.49-.61,1.25-1.55,2.19-2.72,5.28,3.9,10.43,7.69,15.78,11.65-.86,1.16-1.57,2.11-2.5,3.36-2.91-2.12-5.66-4.18-8.49-6.11-.52-.35-1.4-.19-2.11-.26,0,0,.07,.02,.07,.02-1.02-.76-2.04-1.53-3.05-2.29l.03,.1Z" style="fill:#fff;"/><path d="M634.19,198.18c1.73-2.42,3.46-4.83,5.39-7.52,10.91,3.56,22.13,3.7,33.37,3.36,13.66-.42,26.29-3.78,37.16-12.7,8.13-6.67,12.98-15.02,14.72-25.23,2.81-16.47-.72-30.76-14.84-41.13-7.85-5.76-16.72-9.32-26.13-11.7-8.59-2.17-17.2-4.24-25.7-6.72-2.68-.78-5.02-2.73-7.17-3.96,.58-4.93,3.12-6.69,6.63-7.2,15.27-2.21,28.63,1.95,40.13,12.15,1.21,1.08,2.31,2.28,3.49,3.4,.16,.15,.44,.17,1.07,.4,7.28-9.6,14.63-19.29,22.07-29.1-11.17-11.44-24.36-18.85-39.99-21.44-15.06-2.49-30.06-2.67-44.65,2.99-7.76,3.01-14.14,7.8-19.32,14.24-.55,.68-1.12,1.33-1.7,1.98-.05,.06-.21,.02-.56,.04,.52-11.77-6.34-19.59-14.56-26.65-7.16-6.15-14.8-11.46-25.03-13.54,.15-2.36-.04-4.67,.49-6.81,2.11-8.58,2.01-11.67-1.32-18.09h4.18c48.25,0,96.5-.16,144.74,.19,6.43,.05,13.02,2.2,19.21,4.32,6.82,2.34,13.14,2.46,19.9-.11,9.9-3.76,20.24-4.56,30.87-4.52,68.87,.23,137.75,.1,206.62,.16,4.72,0,9.53,.18,14.16,1.03,12.81,2.35,19.98,10.89,20.54,23.89,.11,2.61,.02,5.24,.02,7.86,0,76.09,0,152.18,0,228.26v4.79c-4.6,.42-9.03,.83-13.46,1.23-.02,.18-.05,.36-.07,.53,4.37,.46,8.74,.92,14.22,1.5-.83,7.05-.83,14.24-2.66,20.95-2.84,10.43-12.89,16.23-25.94,16.24-42.62,.02-85.25,0-127.87,0h-121.8c-.75-7.29-1.47-14.31-2.18-21.33-.14,0-.28,.01-.42,.02-.66,6.94-1.33,13.88-2.03,21.31h-4.18c-16.37,0-32.76-.35-49.12,.12-11.77,.34-23.06-1.16-34.23-4.81-2.85-.93-6.53-.97-9.36-.02-11.65,3.91-23.5,4.83-35.73,4.82-166.37-.16-332.74-.16-499.11,0-11.73,.01-23.1-.9-34.27-4.57-2.18-.72-5.07-.77-7.18,.04-15.18,5.81-31,4.9-46.65,4.23-16.17-.7-24.69-10.28-25.31-26.65-.11-2.98-.02-5.97-.02-9.36,8.66-2.46,17.25-4.89,25.84-7.33,.05-.25,.11-.5,.16-.75-8.62-2.46-17.24-4.93-25.84-7.38,0-3.64,0-6.99,0-10.34,22.09,0,44.19-.01,66.28,.01,16.35,.02,32.7,.08,49.05,.12-2.87,1.97-7,2.38-8.19,6.86,1.55,3.41,3.17,7,5.09,11.23,3.84-.91,7.36-1.75,11.08-2.64,1.21,1.79,2.35,3.5,3.27,4.86-2.36,3.26-4.42,6.11-6.62,9.15,3.44,3.32,6.35,6.13,9.96,9.61,2.9-1.96,5.89-3.99,9.14-6.19,1.64,1.06,3.49,2.26,5.08,3.29-.83,3.9-1.59,7.42-2.39,11.17,4.56,1.88,8.3,3.42,12.68,5.22,2.13-3.36,4.01-6.32,6.05-9.54,2.03,.4,4.17,.82,5.82,1.15,.79,4.03,1.47,7.55,2.13,10.92h13.63c.66-3.61,1.33-7.25,2.01-10.99,2.15-.33,4.32-.66,6.32-.96,1.27,2.34,2.1,4.5,3.5,6.19,.89,1.07,2.87,2.27,3.97,1.97,3.54-.98,6.89-2.62,10.89-4.24-.77-3.8-1.45-7.14-2.21-10.85,1.47-1.05,3.16-2.26,4.94-3.52,1.66,1.43,3.14,2.76,4.68,4.02,2.58,2.11,5.08,2.48,7.52-.31,1.8-2.05,3.74-3.97,6.36-6.72-2.03-3.05-4.08-6.13-6.25-9.39,1.17-1.74,2.4-3.58,3.55-5.3,3.7,.79,7.12,1.53,10.93,2.35,1.82-4.47,3.34-8.2,5.08-12.48-2.48-1.76-4.66-3.3-6.83-4.85,5.35,0,10.69-.01,16.04-.02,.32,1.04,.63,2.08,.89,2.93q-4.98,6.56,.6,12.5c.26,.27,.49,.56,.75,.83,5.56,5.9,5.93,5.92,11.88,.7,.17-.15,.45-.19,.88-.37,1.09,.46,2.32,.97,3.45,1.44,.27,10.42,2.06,8.53,9.19,8.66,.5,0,1,0,1.5,0q7.91,0,8.35-8.01c.01-.22,.2-.43,.36-.77,1.05-.42,2.19-.88,3.25-1.31,7.56,6.08,6.58,5.89,13.7-1.48,5.44-5.63,5.39-5.67,.75-11.62-.14-.19-.19-.45-.35-.87,.26-.79,.57-1.72,.87-2.66,1.25-.04,2.5-.11,3.75-.11,96.62,0,193.25,0,289.87,0,1.36,0,2.73,.19,4.09,.29v15.91c2.52,.15,4.37,.26,6.22,.38v3.95h390.63c.19-.27,.37-.53,.56-.8-7.98-7.79-15.97-15.59-24.56-23.98,7.92-7.66,15.51-14.99,23.72-22.92-3.95-.21-7.01-.38-10.07-.54,.91-1.13,1.83-2.26,3.11-3.85h-5.42c-117.39,0-234.77,0-352.16,0-1.74,0-3.49-.1-5.23-.16v-15.12h-6.32c-.11-1.31-.23-2.61-.34-3.99-1.16-.11-2.11-.2-3.07-.29Zm261-126.37c-5.6-4.15-10.8-8.67-16.61-12.18-16.66-10.06-35.03-11.74-53.91-9.65-12.81,1.42-23.89,6.57-32.77,16.26-14.16,15.46-14.35,40.94-.17,55.56,5.59,5.76,12.45,9.72,19.99,12.11,11.4,3.61,23,6.6,34.51,9.86,3.76,1.06,7.41,2.3,10.12,6.89-1.24,1.58-2.31,4.11-4.18,5.07-3.02,1.55-6.53,2.66-9.91,2.89-15.92,1.1-29.35-4.55-40.44-15.86-1.44-1.47-2.61-3.22-4.15-5.16-7.81,11.16-14.86,21.24-22.33,31.92,5.46,4.46,10.33,9.19,15.9,12.84,17.97,11.79,38.19,13.07,58.78,11.04,6.22-.61,12.44-2.63,18.34-4.85,7.94-2.98,14.21-8.57,19.76-15.25,15.88,6.31,31.6,12.55,47.01,18.67,4.64,14.31,18.22,17.9,27.97,13.92,2.28-.93,3.81-2.19,3.56-5.1-5.85-2.42-11.7-4.83-17.58-7.26-.42-3.4-.8-6.58-1.17-9.57,2.77-2.17,5.2-4.09,7.63-5.99,6.01,2.4,11.76,4.7,17.71,7.07,.74-1.36,1.31-2.42,1.79-3.31-4.44-13.67-14.76-17.77-31.3-12.34-15.8-6.41-31.94-12.97-48.18-19.56,.13-2.17,.23-3.97,.34-5.84,12.11-2.12,23.77-4.17,35.33-6.2,1.33,.87,2.44,1.67,3.63,2.35,6.94,4,15.9,2.11,20.28-4.41,.78-1.16,.89-2.76,1.55-4.97-5.78,.95-10.52,1.74-15.41,2.54-1.59-1.96-3.14-3.87-4.68-5.75,.95-2.46,1.79-4.65,2.64-6.85,4.79-.89,9.41-1.76,14.11-2.63,.61-4.05-2.19-5.14-4.84-6.16-7.56-2.89-14.09-.4-20.29,7.65-12.46,2.09-25,4.2-37.56,6.31-9.87-13.75-24.14-19.7-39.81-23.35-7.53-1.75-15.01-3.73-22.41-5.96-2.69-.81-5.07-2.65-7.26-3.84,.37-4.98,2.89-6.79,6.39-7.32,15.41-2.33,28.9,1.84,40.38,12.31,1.33,1.21,2.15,2.99,3.5,4.94,8.4-10.9,15.85-20.57,23.78-30.85Zm90.82,10.04q.67,8.67,8.98,8.67c.25,0,.5,0,.75,0q8.62,0,9.71-8.6c1.09-.44,2.32-.93,3.39-1.37q7.17,5.2,13.38-.99,6.04-6.03,.66-12.83c.4-1.08,.86-2.32,1.28-3.44q8.7-1.1,8.7-9.88c0-.12,0-.25,0-.37,.02-8.39,.74-8.76-8.02-9.08-.22,0-.44-.21-.9-.44-.33-.96-.73-2.11-1.13-3.26,.65-.72,1.13-1.28,1.64-1.82,3.5-3.75,3.48-5.1-.11-8.71-1.76-1.77-3.38-3.73-5.34-5.23-1.49-1.15-3.43-1.72-4.86-2.39-2.09,1.93-3.45,3.19-4.9,4.53-1.39-.55-2.63-1.03-3.77-1.48-.88-9.43,.37-8.55-10.28-8.72-.12,0-.25,0-.37,0-9.71-.18-8.56,1.21-8.67,8.05,0,.23-.16,.46-.32,.93-.99,.38-2.12,.81-3.1,1.19-7.21-5.47-7.17-5.43-13.54,1.23-5.77,6.02-6.87,5.25-.32,12.6-.51,1.12-1.06,2.33-1.6,3.51-.84,.07-1.45,.15-2.07,.18-6.27,.25-6.58,.57-6.58,6.68,0,.75,0,1.5,0,2.24q0,9.1,8.74,10.24c.49,1.15,1.01,2.39,1.55,3.67-.72,.77-1.3,1.41-1.9,2.03-3.52,3.64-3.51,4.58,.12,8.28,1.14,1.16,2.24,2.34,3.37,3.51,5.25,5.47,6,5.47,11.3,.12,.16-.16,.44-.21,.87-.4,1,.41,2.14,.87,3.36,1.37Zm-214.12,110.26V51.35h-38.99V192.11h38.99ZM936.58,44.14h-6.83c-.54,1.53-.96,2.72-1.48,4.19-1.4-.78-2.43-1.36-3.46-1.94-.3-.22-.61-.44-.91-.66-1.64,1.72-3.29,3.44-4.71,4.93,1,1.97,1.53,3.01,2.13,4.2-1.52,.63-2.73,1.13-3.77,1.55v6.71c1.41,.49,2.51,.88,3.89,1.36-.74,1.52-1.3,2.69-1.99,4.11,1.7,1.61,3.36,3.19,4.93,4.67,1.53-.85,2.55-1.42,3.92-2.17,.53,1.53,.95,2.76,1.43,4.14h6.72c.61-1.52,1.08-2.71,1.59-3.98,1.37,.68,2.43,1.21,3.63,1.81,1.72-1.61,3.33-3.1,4.79-4.47-.69-1.66-1.22-2.93-1.79-4.31,1.67-.5,2.81-.85,3.94-1.19v-6.69c-1.45-.6-2.64-1.1-4.01-1.67,.74-1.35,1.32-2.39,1.69-3.07-1.58-2.11-2.96-3.96-4.13-5.51-2.02,.94-3.09,1.43-4.36,2.03-.4-1.34-.72-2.39-1.21-4.04ZM78.11,279.87c0-4.95-3.73-8.52-8.86-8.5-5.08,.02-8.91,3.69-8.89,8.52,.02,5.11,3.87,8.8,9.1,8.72,5.05-.07,8.65-3.72,8.65-8.74Zm550.37,1.18c-.03,.11-.05,.22-.08,.32-.62,0-1.25-.03-1.87,0-3.83,.25-7.36,3.15-7.76,6.36-.4,3.24,1.92,6.72,5.95,7.45,2.77,.5,6.11,.36,8.58-.81,1.93-.92,4-3.84,4-5.88,0-2.06-2.17-4.43-3.94-6.07-1.1-1.02-3.22-.96-4.88-1.38Zm374.15,15.81c-4.52-5.78-8.17-10.55-15.64-10.82-2.93,1.73-6.42,3.81-10.46,6.2,6.5,2.89,12.16,5.4,17.73,7.87,2.78-1.08,5.37-2.09,8.38-3.25Zm-44.89-102.12c2.08-1.68,3.9-3.15,5.81-4.69-.43-2.46-.85-4.86-1.25-7.14-2.4-.94-4.45-1.74-6.47-2.53-2.05,1.59-3.88,3.01-5.79,4.49,.42,2.5,.8,4.79,1.19,7.08,2.21,.95,4.24,1.82,6.51,2.79ZM844.18,14.74c-1.13-1.31-1.82-2.11-2.75-3.19-10.07,2.99-20.04,5.94-30.14,8.94,.23,.88,.4,1.54,.63,2.44,10.69-2.71,21.14-5.37,32.26-8.19Zm-124.07,260.86c-2.61,.31-4.89,.58-8.28,.99,2.21,3.85,3.73,6.5,5.36,9.33,1.22,.09,2.53,.18,4.21,.3-.4-3.32-.77-6.36-1.29-10.63Zm292.83,12.83c-1.1,1.48-2.86,2.84-3.16,4.47-.44,2.36,1.37,4.01,3.79,4.1,2.43,.09,4.03-1.38,4.11-3.87,.09-2.48-1.27-3.92-4.74-4.71ZM805.7,21.84c-2.48-.78-5.01-.9-5.84,2.04-.36,1.28,.47,3.78,1.51,4.35,1.23,.66,3.8,.43,4.84-.49,1.97-1.73,1.39-4.03-.51-5.89ZM38.07,291.19c-.02-.53-.04-1.06-.06-1.58-1.37-.84-2.66-2.17-4.13-2.39-2.34-.36-4.07,1.43-3.54,3.52,.35,1.39,2.43,3.02,3.93,3.23,1.11,.16,2.53-1.77,3.81-2.78Zm642.11,4.2c-.48-.02-.97-.04-1.45-.05-.86,1.23-2.39,2.46-2.37,3.68,.01,1.1,1.71,2.19,2.67,3.28,1.15-1.01,3.01-1.89,3.24-3.08,.21-1.09-1.32-2.53-2.09-3.82Zm-89.16-3.27h-3.07c-1.88,1.73-2.36,3.73-.52,5.23,.87,.71,3.3,.68,4.16-.04,1.81-1.52,1.31-3.52-.57-5.19ZM29.44,260.01c2.53-1.13,4.14-1.53,5.27-2.49,.52-.44,.5-2.49-.02-2.95-1.12-.98-2.73-1.41-5.25-2.57v8.01Z" style="fill:#990101;"/><path d="M182.41,23.86c-4.94-6.05-9.87-12.1-15.17-18.6,1.56-.13,2.6-.29,3.65-.29,4.75-.03,9.51,.23,14.25-.06,15.89-.97,31.36,.8,46.38,6.27,1.82,.66,4.12,.36,6.12,.04,2.32-.37,4.59-1.17,6.83-1.94,10.02-3.43,20.26-4.55,30.9-4.44,34.12,.33,68.24,.12,102.36,.12h5.35c-2.9,4.28-5.39,7.93-7.85,11.6-1.75,2.6-1.46,4.62,2.06,5.97,4.58-5.78,9.21-11.61,13.74-17.33h112.02v15.6c-2.17,.65-4.38,1.31-6.15,1.83-2.88-3.74-5.2-7.31-8.08-10.34-3.73-3.93-7.06-4-11.72-1.21-3.75,2.24-7.61,4.29-11.36,6.52-5.29,3.14-6.75,6.74-4.73,12.61,1.21,3.5,2.98,6.81,4.69,10.64-1.09,1.01-2.43,2.23-3.75,3.45-3.35-2.06-6.4-4.23-9.71-5.9-5.94-2.99-9.53-1.97-13.54,3.32-2.34,3.08-4.72,6.12-7.19,9.31h-26.65c-9.14,22.56-18.27,45.11-27.78,68.58-9.33-23.32-18.31-45.76-27.33-68.3h-48.37V192.29h38.68v-63.59c.32-.08,.64-.15,.95-.23,8.58,21.25,17.16,42.49,25.76,63.81h20.16c7.34-18.08,14.68-36.17,22.26-54.86,1.26,5.44,2.36,10.23,3.47,15.02,.42-.08,.85-.15,1.27-.23v39.88h15.05c4.87,5.55,10.31,3.94,15.9,1.83,2.49-.94,5.13-1.47,7.69-2.18,1.23,1.36,2.03,2.25,3.05,3.39-.94,1.18-1.76,2.23-2.59,3.27-1.24-.04-2.49-.11-3.74-.11-144.34,0-288.68,0-433.02,0-1,0-2.11-.27-2.97,.08-.98,.4-1.73,1.34-2.58,2.05-.04-1.24-.13-2.49-.13-3.73-.03-54.59-.06-109.18-.06-163.77,0-17.5,9.76-27.57,27.27-27.67,39.09-.21,78.18-.23,117.27-.19,1.78,0,3.86,.91,5.29,2.04,7.23,5.73,14.3,11.67,21.43,17.53,.23,.2,.47,.4,.7,.59,.42,.08,.85,.16,1.27,.25,.1,.41,.2,.82,.3,1.23,.38,.11,.76,.22,1.14,.34,0,0,.01-.01,.01-.01-.17-.18-.34-.37-.51-.55-.34-.31-.68-.63-1.01-.94-.22-.27-.45-.55-.67-.82-.22-.28-.43-.56-.65-.84Zm-8.77,145.12c6.37,6.91,13.21,12.61,21.34,16.69,13.87,6.96,28.67,8.82,43.99,8.43,14.48-.37,27.65-3.73,39.43-12.77,16.87-12.94,21.02-42.39,7.57-58.89-8.68-10.65-20.77-15.58-33.58-19.07-8.53-2.33-17.17-4.3-25.7-6.62-3.09-.84-6.25-1.91-7.58-5.32,.67-3.69,3.04-5.49,6.41-6,15.4-2.31,28.89,1.81,40.38,12.28,1.34,1.22,2.22,2.93,3.59,4.79,8.32-10.8,15.75-20.44,23.64-30.69-5.59-4.15-10.7-8.57-16.39-12.04-16.62-10.14-34.98-11.9-53.85-9.79-12.21,1.36-22.85,6.1-31.74,15.05-16.93,17.05-17.37,51.33,10.02,65.04,2.9,1.45,5.79,3.04,8.87,3.95,11.46,3.4,23.01,6.53,34.51,9.8,3.85,1.09,7.71,2.24,9.66,6.12-.92,4.68-3.35,7.02-9.16,8.07-12.44,2.25-24.2,.09-34.72-6.9-5.36-3.56-10.06-8.11-15.26-12.38-6.97,9.84-14.08,19.88-21.43,30.26ZM102.75,49.39c-10-.16-19.85,.96-29,4.87-26.23,11.19-41.46,30.94-44.1,59.47-2.48,26.86,5.69,49.77,27.64,66.58,16.31,12.49,35.18,16.05,55.22,13.92,17.2-1.83,32.3-8.67,44.25-21.3,22.16-23.42,26-63.43,8.57-90.6-14.54-22.67-36.01-32.79-62.58-32.94ZM36.05,15.04c-3.44-.04-5.98,2.34-6.06,5.7-.08,3.31,2.43,5.85,5.87,5.91,3.33,.06,6.09-2.51,6.12-5.71,.03-3.17-2.68-5.86-5.93-5.9Zm172.82,14.4c.08-4.02-1.84-6.55-4.97-6.54-2.89,0-4.94,2.53-5.03,6.21-.09,3.53,2.22,6.77,4.89,6.88,2.88,.11,5.04-2.65,5.12-6.55ZM55,20.28c-3.52-.02-6.05,1.71-6.1,4.17-.05,2.4,2.57,4.23,6.07,4.18,2.81-.04,5.34-.75,5.82-3.99,.37-2.51-2.23-4.34-5.78-4.36Zm127.95,20.88c-.57,.43-1.15,.85-1.72,1.28,.37,1.55,.39,3.35,1.24,4.56,.44,.63,2.82,.75,3.49,.16,.87-.76,1.62-3.01,1.13-3.65-.88-1.16-2.7-1.61-4.14-2.35ZM40.98,32.54c-2.2-1.38-3.57-2.91-4.56-2.7-1.25,.27-2.19,1.96-3.26,3.04,1.06,1,2.13,2.78,3.19,2.78,1.24,0,2.47-1.57,4.63-3.12Z" style="fill:#990101;"/><path d="M126.11,249.43c6.09,0,12.19,.01,18.28,.02,6.91,16.53,19.05,26.49,37.02,28.54,19.81,2.27,40.01-10.46,45.99-28.57,6.63,0,13.27,0,19.9,.01,2.17,1.54,4.35,3.09,6.83,4.85-1.74,4.27-3.26,8.01-5.08,12.48-3.81-.82-7.23-1.55-10.93-2.35-1.15,1.72-2.38,3.56-3.55,5.3,2.16,3.25,4.21,6.33,6.25,9.39-2.61,2.75-4.56,4.67-6.36,6.72-2.45,2.79-4.95,2.41-7.52,.31-1.54-1.26-3.01-2.59-4.68-4.02-1.78,1.27-3.47,2.47-4.94,3.52,.76,3.71,1.43,7.04,2.21,10.85-4,1.62-7.35,3.27-10.89,4.24-1.09,.3-3.07-.89-3.97-1.97-1.4-1.69-2.23-3.85-3.5-6.19-2,.3-4.17,.63-6.32,.96-.68,3.73-1.35,7.37-2.01,10.99h-13.63c-.66-3.37-1.34-6.89-2.13-10.92-1.64-.32-3.78-.75-5.82-1.15-2.04,3.22-3.92,6.18-6.05,9.54-4.38-1.8-8.12-3.34-12.68-5.22,.8-3.76,1.56-7.28,2.39-11.17-1.59-1.03-3.44-2.23-5.08-3.29-3.25,2.2-6.24,4.23-9.14,6.19-3.6-3.48-6.52-6.29-9.96-9.61,2.2-3.04,4.26-5.89,6.62-9.15-.92-1.36-2.06-3.07-3.27-4.86-3.73,.89-7.24,1.73-11.08,2.64-1.92-4.23-3.54-7.82-5.09-11.23,1.19-4.47,5.32-4.89,8.19-6.86Z" style="fill:#fd9700;"/><path d="M986.02,81.85c-1.23-.5-2.37-.97-3.36-1.37-.43,.19-.71,.23-.87,.4-5.3,5.35-6.05,5.35-11.3-.12-1.12-1.17-2.23-2.35-3.37-3.51-3.63-3.69-3.64-4.64-.12-8.28,.6-.62,1.18-1.26,1.9-2.03-.54-1.28-1.06-2.51-1.55-3.67q-8.73-1.13-8.74-10.24c0-.75,0-1.5,0-2.24,0-6.12,.32-6.44,6.58-6.68,.62-.02,1.23-.1,2.07-.18,.54-1.18,1.09-2.39,1.6-3.51-6.55-7.35-5.44-6.58,.32-12.6,6.37-6.65,6.33-6.69,13.54-1.23,.98-.38,2.11-.81,3.1-1.19,.17-.46,.32-.69,.32-.93,.11-6.84-1.04-8.23,8.67-8.05,.12,0,.25,0,.37,0,10.65,.17,9.4-.71,10.28,8.72,1.14,.45,2.38,.93,3.77,1.48,1.45-1.34,2.81-2.6,4.9-4.53,1.43,.68,3.37,1.25,4.86,2.39,1.96,1.51,3.58,3.46,5.34,5.23,3.6,3.62,3.61,4.96,.11,8.71-.5,.54-.99,1.1-1.64,1.82,.4,1.15,.79,2.29,1.13,3.26,.46,.23,.68,.44,.9,.44,8.76,.32,8.04,.69,8.02,9.08,0,.12,0,.25,0,.37q0,8.77-8.7,9.88c-.42,1.12-.88,2.36-1.28,3.44q5.38,6.81-.66,12.83-6.2,6.19-13.38,.99c-1.08,.43-2.31,.93-3.39,1.37q-1.08,8.6-9.71,8.6c-.25,0-.5,0-.75,0q-8.31,0-8.98-8.67Zm9.77-7.8c11.53,0,20.47-9.07,20.45-20.77-.02-11.4-8.98-20.17-20.6-20.16-11.38,.01-20.56,9.09-20.53,20.3,.03,11.55,9.12,20.62,20.68,20.63Z" style="fill:#fd9700;"/><path d="M308.97,249.42c3.48,0,6.97,0,10.45,0-.31,.93-.61,1.87-.87,2.66,.16,.41,.21,.68,.35,.87,4.64,5.95,4.69,5.99-.75,11.62-7.12,7.36-6.15,7.56-13.7,1.48-1.06,.43-2.2,.89-3.25,1.31-.17,.34-.35,.55-.36,.77q-.44,8.01-8.35,8.01c-.5,0-1,0-1.5,0-7.14-.13-8.93,1.76-9.19-8.66-1.12-.47-2.35-.99-3.45-1.44-.43,.18-.7,.22-.88,.37-5.96,5.21-6.33,5.19-11.88-.7-.26-.27-.49-.56-.75-.83q-5.58-5.95-.6-12.5c-.26-.85-.57-1.89-.89-2.93,3.47,0,6.95,0,10.42,0,8.97,13.67,26.23,13.67,35.2,0Z" style="fill:#fd9700;"/><path d="M936.58,44.14c.5,1.65,.81,2.7,1.21,4.04,1.27-.59,2.34-1.09,4.36-2.03,1.17,1.56,2.55,3.4,4.13,5.51-.37,.68-.95,1.72-1.69,3.07,1.37,.57,2.56,1.07,4.01,1.67v6.69c-1.13,.34-2.28,.68-3.94,1.19,.57,1.38,1.1,2.65,1.79,4.31-1.47,1.37-3.07,2.86-4.79,4.47-1.2-.6-2.26-1.13-3.63-1.81-.51,1.27-.98,2.47-1.59,3.98h-6.72c-.48-1.38-.9-2.6-1.43-4.14-1.36,.75-2.39,1.32-3.92,2.17-1.57-1.49-3.23-3.07-4.93-4.67,.69-1.42,1.25-2.59,1.99-4.11-1.39-.48-2.48-.87-3.89-1.36v-6.71c1.04-.43,2.25-.93,3.77-1.55-.6-1.19-1.13-2.23-2.13-4.2,1.42-1.49,3.07-3.21,4.71-4.93,.3,.22,.61,.44,.91,.66,1.03,.58,2.07,1.16,3.46,1.94,.52-1.46,.94-2.66,1.48-4.19h6.83Z" style="fill:#fd9700;"/><path d="M69.28,123.23c.36-14.32,3.89-25.8,15.32-33.06,16.48-10.46,45.09-6.33,51.05,22.85,1.97,9.64,1.07,19.13-3.52,28.01-6.72,13-19.94,19.66-34.65,17.57-13.26-1.88-24.01-12.07-26.9-25.74-.77-3.64-1.01-7.38-1.3-9.64Z" style="fill:#990101;"/><path d="M461.18,86.04h-7.62V49.15c.64-.4,1.55-.98,2.55-1.61,1.88,1.39,3.66,2.7,5.51,4.06,4.11-3.85,8.09-7.57,12.1-11.33-2.6-5.6-5.18-11.13-7.85-16.87,5.72-3.27,10.54-6.03,15.64-8.94,6.42,2.97,7.68,10.08,11.61,14.6,5.83-1.99,11.43-3.9,17.05-5.81-.33-6.03-.64-11.8-.98-18.19,6.4-.84,12.14-1.59,18.16-2.38,4.74,5.08,3.32,11.78,5.02,17.86,5.39,.28,10.94,.57,16.25,.84,2.05-5.71,3.99-11.12,6.13-17.07,6.45,1.64,12.05,3.06,17.59,4.46,3.16,6.53-2.3,12.25-.83,18.29-12.07,2.57-14.32,4.35-19.39,15.28-40.25-6.27-70.72,7.92-90.94,43.72Z" style="fill:#fd9700;"/><path d="M226.53,248.97c-5.98,18.1-26.18,30.83-45.99,28.57-17.98-2.06-30.12-12.01-37.02-28.54,21.31-.05,42.63-.11,63.95-.14,6.36,0,12.71,.08,19.07,.12Z" style="fill:#990101;"/><path d="M308.09,248.96c-8.97,13.67-26.23,13.67-35.2,0,11.73,0,23.47,0,35.2,0Z" style="fill:#990101;"/><path d="M896.73,138c-.55-2.05-1.01-3.8-1.56-5.87,10.37-1.84,20.4-3.68,30.47-5.32,1.16-.19,3.01,.36,3.6,1.21,.63,.92,.14,2.6,.14,4.19-11.19,1.99-21.82,3.88-32.64,5.8Z" style="fill:#990101;"/></svg>