
<svg xmlns="http://www.w3.org/2000/svg" version="1.1" xmlns:xlink="http://www.w3.org/1999/xlink" preserveAspectRatio="none" x="0px" y="0px" width="620px" height="200px" viewBox="0 0 620 200">
<defs>
<filter id="Filter_1" x="-20%" y="-20%" width="140%" height="140%" color-interpolation-filters="sRGB">
<feColorMatrix in="SourceGraphic" type="matrix" values="0 0 0 0 0 0 0 0 0 0 0 0 0 0 0 0 0 0 1 0" result="result1"/>
</filter>

<g id="Layer7_0_FILL">
<path fill="#990000" stroke="none" d="
M 615 27
Q 615 10.15 597.05 10.15
L 462.55 10.15 447.75 14.3 432.9 10.15 231.5 10.15 225.9 17.2 226.75 10.15 153.55 10.15 138.75 14.3 123.9 10.15 98.6 10.15 110.55 24.5 93.3 10.15 23.95 10.15
Q 5.95 10.15 5.95 27
L 6 164 10 167 5.95 170.5 5.95 175.2
Q 5.95 192.05 23.95 192.05
L 38.75 192.05 50.75 188.7 62.7 192.05 379.95 192.05 393 188.4 406.05 192.05 447.75 192.05
Q 449.0029296875 187.9818359375 449.7 185.05
L 450.35 192.05 597.05 192.05
Q 615 192.05 615 175.2
L 615 169.9 604.75 168.95 615 168 615 27
M 578.6 180.7
L 585.1 176.85 589.6 178.25 593.85 182.95 592.95 184.3 589.9 184.9 589.3 185.5 578.6 180.7
M 598.25 181.2
Q 598.25 180.2 598.95 179.5 599.65 178.8 600.65 178.8 601.65 178.8 602.35 179.5 603.05 180.2 603.05 181.2 603.05 182.2 602.35 182.9 601.65 183.6 600.65 183.6 599.65 183.6 598.95 182.9 598.25 182.2 598.25 181.2
M 351.05 182.45
Q 351.05 183.25 350.5 183.8 349.95 184.4 349.15 184.4 348.35 184.4 347.8 183.8 347.25 183.25 347.25 182.45 347.25 181.65 347.8 181.05 348.35 180.5 349.15 180.5 349.95 180.5 350.5 181.05 351.05 181.65 351.05 182.45
M 404.3 184.8
Q 404.3 185.6 403.75 186.15 403.2 186.7 402.4 186.7 401.6 186.7 401.05 186.15 400.5 185.6 400.5 184.8 400.5 184 401.05 183.45 401.6 182.9 402.4 182.9 403.2 182.9 403.75 183.45 404.3 184 404.3 184.8
M 496.8 14.45
L 499 21 486.8 17.4 496.8 14.45
M 422.3 171.7
L 424.1 170.6 426.65 171.3 427.25 175.85 422.5 173.75 422.3 171.7 Z"/>
</g>

<g id="Layer6_0_FILL">
<path fill="#1A1837" stroke="none" d="
M 562.9 116.95
L 563.55 121.2 567.5 122.8 570.85 120.1 570.25 115.85 566.3 114.3 562.9 116.95
M 524.4 91.85
Q 520.95 90.45 517.5 91.95 514.15 93.4 512.75 96.85 511.4 100.3 512.85 103.7 514.3 107.1 517.75 108.5 520.4 109.55 523 108.9
L 533.95 113.15 534 113.15 553.65 121 553.6 121 554.15 121.2
Q 554.4 122.1 554.75 123 556.7 127.65 561.4 129.5 566.1 131.4 570.75 129.4 571.45 129.1 572.05 128.8 572.25 128.7 572.3 128.4
L 572.85 127.05
Q 572.95 126.85 572.85 126.6 572.7 126.4 572.45 126.25
L 562.35 122.2 561.55 116.45 566.15 112.85 576.2 116.9
Q 576.5 117 576.75 116.9 577 116.8 577.05 116.5
L 577.65 115.2
Q 577.7 114.95 577.65 114.8 577.45 114.05 577.15 113.4 575.15 108.8 570.45 106.9 565.8 105.05 561.2 107 560.3 107.4 559.5 107.85
L 557.3 107 557.35 107 528.7 95.35
Q 527.2 92.95 524.4 91.85
M 519.3 96
Q 521 95.25 522.75 95.95 524.5 96.65 525.25 98.4 525.95 100.15 525.25 101.9 524.55 103.6 522.85 104.35 521.15 105.1 519.4 104.4 517.65 103.7 516.95 101.95 516.15 100.25 516.85 98.5 517.55 96.75 519.3 96 Z"/>
</g>

<g id="Layer6_1_FILL">
<path fill="#1A1837" stroke="none" d="
M 516.35 84.6
Q 514.75 86.9 515.25 89.75 515.75 92.55 518 94.2 520.35 95.8 523.15 95.3 525.3 94.95 526.75 93.45
L 535.6 91.85 535.6 91.8 551.55 89.05 551.55 89.1 552 89
Q 552.5 89.55 553.05 89.95 556.25 92.15 560.05 91.5 563.85 90.85 566.05 87.75 566.4 87.25 566.65 86.75 566.7 86.65 566.7 86.45
L 566.5 85.35
Q 566.45 85.2 566.3 85.05 566.1 84.95 565.9 84.95
L 557.7 86.4 554.9 82.9 556.4 78.8 564.6 77.35
Q 564.8 77.35 564.95 77.15 565.05 77 565 76.8
L 564.85 75.7
Q 564.8 75.55 564.65 75.4 564.3 75.05 563.85 74.75 560.7 72.5 556.9 73.15 553.1 73.8 550.85 76.95 550.45 77.55 550.1 78.15
L 525 82.4
Q 523.05 81.45 520.85 81.8 518.05 82.3 516.35 84.6
M 529.75 89.1
Q 529 89.2 528.4 88.75 527.8 88.35 527.65 87.6 527.55 86.9 528 86.25 528.4 85.65 529.15 85.55
L 547.95 82.3
Q 548.7 82.15 549.3 82.6 549.9 83.05 550 83.75 550.15 84.5 549.7 85.1 549.3 85.7 548.55 85.85
L 529.75 89.1 Z"/>
</g>

<g id="Layer5_0_FILL">
<path fill="#FF9900" stroke="none" d="
M 609.2 41.9
L 608.4 38.95 599.35 43.75
Q 599.654296875 47.4279296875 597.7 50.8 595.15 55.1 590.3 56.4 585.4 57.7 581.1 55.25 576.75 52.7 575.45 47.8 574.1 42.95 576.65 38.6 579.137109375 34.272265625 584 32.95
L 584 22.7 578.6 24.2
Q 576.1 24.85 576.75 27.4
L 577.45 29.9
Q 576.35 30.55 575.45 31.4
L 573.2 30.15
Q 571 28.85 569.65 31.05
L 566.6 36.35
Q 565.35 38.55 567.55 39.85
L 569.8 41.1
Q 569.5 42.35 569.45 43.6
L 567 44.3
Q 564.5 44.95 565.15 47.45
L 566.7 53.3
Q 567.4 55.8 569.9 55.15
L 572.35 54.45
Q 573.05 55.5 573.9 56.45
L 572.6 58.7
Q 571.3 60.9 573.55 62.2
L 578.8 65.2
Q 581.05 66.5 582.35 64.3
L 583.6 62.1
Q 584.9 62.3 586.15 62.4
L 586.8 64.85
Q 587.45 67.35 589.95 66.7
L 595.8 65.1
Q 598.25 64.45 597.6 61.95
L 596.95 59.5
Q 598 58.8 599 58
L 601.15 59.25
Q 603.45 60.5 604.7 58.3
L 607.75 53
Q 609.05 50.85 606.8 49.5
L 604.6 48.25
Q 604.85 47 604.9 45.75
L 607.4 45.1
Q 609.9 44.4 609.2 41.9 Z"/>
</g>

<g id="Layer5_1_FILL">
<path fill="#FF9900" stroke="none" d="
M 736.3 31.9
L 732 27.6
Q 730.15 25.8 728.35 27.6
L 726.55 29.45
Q 725.4 28.85 724.2 28.5
L 724.2 25.9
Q 724.2 23.3 721.65 23.3
L 715.6 23.3
Q 713 23.3 713 25.9
L 713 28.5
Q 711.8 28.85 710.7 29.45
L 708.85 27.6
Q 707.05 25.8 705.2 27.6
L 700.9 31.9
Q 699.1 33.75 700.9 35.55
L 702.75 37.35
Q 702.15 38.5 701.75 39.7
L 699.2 39.7
Q 696.6 39.7 696.6 42.25
L 696.6 48.35
Q 696.6 50.9 699.2 50.9
L 701.75 50.9
Q 702.15 52.1 702.7 53.25
L 700.9 55.05
Q 699.1 56.85 700.9 58.7
L 705.2 63
Q 707 64.8 708.85 63
L 710.65 61.2
Q 711.8 61.75 713 62.15
L 713 64.7
Q 713 67.3 715.6 67.3
L 721.65 67.3
Q 724.2 67.3 724.2 64.7
L 724.2 62.15
Q 725.4 61.75 726.55 61.2
L 728.35 63
Q 730.2 64.8 732 63
L 736.3 58.7
Q 738.1 56.9 736.3 55.05
L 734.5 53.25
Q 735.05 52.1 735.45 50.9
L 738 50.9
Q 740.6 50.9 740.6 48.35
L 740.6 42.25
Q 740.6 39.7 738 39.7
L 735.45 39.7
Q 735.05 38.5 734.5 37.35
L 736.3 35.55
Q 738.1 33.75 736.3 31.9 Z"/>
</g>

<g id="Layer5_2_FILL">
<path fill="#FF9900" stroke="none" d="
M 77.35 164.9
L 79 164.25
Q 80.05 166 81.35 167.65
L 80.05 168.9
Q 76.55 172.4 78.15 174
L 81.95 177.75
Q 83.5 179.35 87 175.85
L 88.3 174.6
Q 89.95 175.9 91.8 177
L 91.15 178.6
Q 89.25 183.15 91.35 184
L 96.3 186.05
Q 98.4 186.9 100.25 182.35
L 100.9 180.75
Q 102.9 181.25 105 181.55
L 105 183.25
Q 105 188.2 107.25 188.2
L 112.55 188.2
Q 114.85 188.2 114.85 183.25
L 114.85 181.55
Q 117 181.25 119.05 180.75
L 119.65 182.15
Q 121.55 186.7 123.6 185.85
L 128.55 183.8
Q 130.6 182.9 128.7 178.35
L 128.15 176.95
Q 129.9 175.9 131.55 174.6
L 132.7 175.8
Q 136.2 179.3 137.8 177.7
L 141.55 173.95
Q 143.15 172.35 139.65 168.85
L 138.5 167.65
Q 139.85 165.85 141 164
L 142.35 164.55
Q 146.95 166.4 147.8 164.35
L 149.8 159.4
Q 150.65 157.3 146.1 155.4
L 144.7 154.85
Q 145.15 152.95 145.45 150.95
L 147.1 150.95
Q 152.05 150.95 152.05 148.7
L 152.05 144.55 136.15 144.55
Q 136.2 145.2681640625 136.2 146 136.2 156.9 128.45 164.65 120.75 172.35 109.85 172.35 98.95 172.35 91.25 164.65 83.55 156.9 83.55 146 83.55 145.2681640625 83.55 144.55
L 67.7 144.55 67.7 148.7
Q 67.7 150.95 72.65 150.95
L 74.4 150.95
Q 74.65 153.1 75.2 155.1
L 73.55 155.8
Q 69 157.7 69.85 159.8
L 71.9 164.75
Q 72.8 166.8 77.35 164.9 Z"/>
</g>

<g id="Layer5_3_FILL">
<path fill="#FF9900" stroke="none" d="
M 654.55 74.4
L 654.55 65.85
Q 654.55 57.4 646.05 57.4
L 626.05 57.4
Q 617.55 57.4 617.55 65.85
L 617.55 74.4
Q 613.6 75.7 609.9 77.55
L 603.9 71.55
Q 597.9 65.55 591.9 71.55
L 577.75 85.65
Q 571.7 91.7 577.75 97.7
L 583.75 103.7
Q 581.85 107.4 580.55 111.35
L 572.05 111.35
Q 563.55 111.35 563.55 119.85
L 563.55 139.85
Q 563.55 148.35 572.05 148.35
L 580.55 148.35
Q 581.8 152.3 583.7 156
L 577.75 162
Q 571.7 167.95 577.75 174
L 591.85 188.15
Q 597.85 194.15 603.85 188.15
L 609.85 182.2
Q 613.6 184.05 617.55 185.35
L 617.55 193.8
Q 617.55 202.3 626.05 202.3
L 646.05 202.3
Q 654.55 202.3 654.55 193.8
L 654.55 185.35
Q 658.5 184.05 662.2 182.2
L 668.2 188.15
Q 674.2 194.15 680.2 188.1
L 694.35 174
Q 700.35 168 694.35 162
L 688.35 156
Q 690.25 152.3 691.55 148.35
L 700 148.35
Q 708.5 148.35 708.5 139.85
L 708.5 119.85
Q 708.5 111.35 700 111.35
L 691.55 111.35
Q 690.25 107.4 688.35 103.7
L 694.3 97.7
Q 700.3 91.7 694.3 85.7
L 680.15 71.55
Q 674.15 65.55 668.15 71.55
L 662.2 77.55
Q 658.5 75.7 654.55 74.4
M 664.35 101.55
Q 676.1 113.25 676.1 129.9 676.1 146.45 664.35 158.2 652.6 169.95 636 169.95 619.4 169.95 607.7 158.2 595.95 146.45 595.95 129.9 595.95 113.25 607.7 101.55 619.4 89.8 636 89.8 652.6 89.8 664.35 101.55 Z"/>
</g>

<g id="toolkitbg_0_Layer0_0_FILL">
<path fill="#004352" stroke="none" d="
M 252 -10.7
L 202.7 -10.7 202.7 25.3 253 25.3 234.5 6.85 252 -10.7 Z"/>

<path fill="#000000" stroke="none" d="
M 2 -10.75
L 2 -25.25 -418 -25.25 -418 -24.25 -470.55 -24.45 -470.55 9.75 -13.3 9.75 -13.3 25.25 34.7 25.25 34.7 25.3 202.7 25.3 202.7 -10.7 63.6 -10.7 63.6 -10.75 2 -10.75 Z"/>
</g>

<g id="Layer4_1_FILL">
<path fill="#339999" stroke="none" d="
M 33.6 124.95
L 6 124.95 6 152.5 11.25 152.5 12.3 152.75 33.6 152.75 33.6 124.95
M 377.6 136.5
L 377.6 124.95 33.6 124.95 33.6 152.75 365.45 152.75 377.6 152.75 377.6 136.5
M 562.95 150.45
L 576.85 136.55 426.5 136.55 426.5 136.5 379.95 136.5 379.95 152.75 367.65 165.1 403.55 165.1 403.55 165.15 577.65 165.15 562.95 150.45 Z"/>

<path fill="#006666" stroke="none" d="
M 379.95 136.5
L 377.6 136.5 377.6 152.75 365.45 152.75 365.45 165.1 367.65 165.1 379.95 152.75 379.95 136.5 Z"/>
</g>

<g id="Layer3_0_FILL">
<path fill="#FFFFFF" stroke="none" d="
M 424.8 143.2
Q 423.3 143.2 422 143.75 420.65 144.3 419.65 145.3 418.6 146.3 418 147.6 417.45 148.9 417.45 150.4 417.45 151.85 418 153.15 418.6 154.45 419.65 155.45 420.65 156.45 422 157 423.3 157.6 424.8 157.6 426.35 157.6 427.7 157 429 156.45 430.05 155.45 431.05 154.45 431.65 153.15 432.2 151.85 432.2 150.4 432.2 148.9 431.65 147.6 431.05 146.3 430.05 145.3 429 144.3 427.7 143.75 426.35 143.2 424.8 143.2
M 421.1 148.15
Q 421.7 147.15 422.65 146.5 423.65 145.9 424.8 145.9 426 145.9 427 146.5 427.95 147.15 428.55 148.15 429.15 149.15 429.15 150.4 429.15 151.6 428.55 152.65 427.95 153.65 427 154.25 426 154.85 424.8 154.9 423.65 154.85 422.65 154.25 421.7 153.65 421.1 152.65 420.5 151.6 420.5 150.4 420.5 149.15 421.1 148.15
M 449.45 143.75
Q 448.1 143.2 446.55 143.2 445.05 143.2 443.75 143.75 442.4 144.3 441.4 145.3 440.35 146.3 439.75 147.6 439.2 148.9 439.2 150.4 439.2 151.85 439.75 153.15 440.35 154.45 441.4 155.45 442.4 156.45 443.75 157 445.05 157.6 446.55 157.6 448.1 157.6 449.45 157 450.75 156.45 451.8 155.45 452.8 154.45 453.4 153.15 453.95 151.85 453.95 150.4 453.95 148.9 453.4 147.6 452.8 146.3 451.8 145.3 450.75 144.3 449.45 143.75
M 448.75 146.5
Q 449.7 147.15 450.3 148.15 450.9 149.15 450.9 150.4 450.9 151.6 450.3 152.65 449.7 153.65 448.75 154.25 447.75 154.85 446.55 154.9 445.4 154.85 444.4 154.25 443.45 153.65 442.85 152.65 442.25 151.6 442.25 150.4 442.25 149.15 442.85 148.15 443.45 147.15 444.4 146.5 445.4 145.9 446.55 145.9 447.75 145.9 448.75 146.5
M 464.3 143.45
L 461.35 143.45 461.35 157.35 471.25 157.35 471.25 154.65 464.3 154.65 464.3 143.45
M 399.05 146.1
L 403.4 146.1 403.4 157.35 406.4 157.35 406.4 146.1 410.7 146.1 410.7 143.45 399.05 143.45 399.05 146.1
M 492.45 143.45
L 489.5 143.45 489.5 157.35 492.45 157.35 492.45 153.45 494.2 151.6 498.45 157.35 502.1 157.35 496.3 149.45 501.7 143.45 498.1 143.45 492.45 149.8 492.45 143.45
M 511.8 143.45
L 508.8 143.45 508.8 157.35 511.8 157.35 511.8 143.45
M 530.8 146.1
L 530.8 143.45 519.15 143.45 519.15 146.1 523.5 146.1 523.5 157.35 526.5 157.35 526.5 146.1 530.8 146.1 Z"/>
</g>

<g id="Layer2_0_FILL">
<path fill="#1A1837" stroke="none" d="
M 352.35 73.2
L 363.05 72.4 359.55 55.7 348.7 61.1 352.3 72.8 352.35 73.2 Z"/>

<path fill="#FF9900" stroke="none" d="
M 332.9 18.35
L 324.85 16.2
Q 321.5 15.35 319.55 22.7
L 318.9 25.1
Q 315.9 24.75 312.8 24.75
L 312.5 22.2
Q 311.55 14.6 308.05 15.05
L 299.9 16.1
Q 296.45 16.55 297.4 24.1
L 297.7 26.7
Q 294.35 27.6 291.15 28.85
L 289.8 26.6
Q 286 19.95 283 21.75
L 275.85 25.85
Q 272.85 27.6 276.7 34.2
L 278.05 36.5
Q 275.65 38.4 273.45 40.6
L 271.35 38.95
Q 265.35 34.3 263.25 37.05
L 258.15 43.55
Q 256.1 46.25 262.05 50.95
L 264.2 52.6
Q 262.5 55.45 261.2 58.45
L 258.5 57.7
Q 251.15 55.75 250.25 59.1
L 248.1 67.05
Q 247.2 70.45 254.55 72.4
L 257.3 73.15
Q 256.9 76.2 256.95 79.4
L 254.2 79.75
Q 246.65 80.7 247.1 84.1
L 248.1 92.25
Q 248.55 95.8 256.1 94.85
L 258.8 94.5
Q 259.6 97.65 260.8 100.7
L 258.35 102.05
Q 251.8 105.85 253.55 108.95
L 257.6 116.05
Q 259.35 119.05 266 115.3
L 268.35 113.9
Q 270.35 116.35 272.6 118.65
L 270.9 120.85
Q 266.25 126.85 269 129
L 275.5 134.05
Q 278.25 136.1 282.85 130.15
L 284.6 127.95
Q 287.4 129.65 290.45 130.95
L 289.7 133.5
Q 287.75 140.9 291.1 141.75
L 299.05 143.9
Q 302.45 144.85 304.45 137.45
L 305.1 134.95
Q 308.2 135.35 311.5 135.35
L 311.8 138
Q 312.75 145.55 316.2 145.1
L 324.35 144.05
Q 327.85 143.6 326.9 136.05
L 326.55 133.4
Q 329.75 132.6 332.85 131.4
L 334 133.45
Q 337.85 140.1 340.85 138.3
L 347.95 134.25
Q 350.95 132.45 347.2 125.9
L 346 123.85
Q 348.5 121.95 350.75 119.65
L 352.8 121.2
Q 358.8 125.9 360.9 123.15
L 365.95 116.65
Q 368.15 113.95 362.1 109.25
L 360.05 107.65
Q 361.8 104.65 363.15 101.55
L 365.4 102.15
Q 372.75 104.1 373.65 100.8
L 375.8 92.8
Q 376.7 89.45 369.3 87.45
L 367.15 86.85
Q 367.45 83.85 367.45 80.75
L 370 80.45
Q 377.55 79.5 377.1 76
L 376.55 71.4 363.15 72.4 363.05 72.4 352.35 73.2 352.1 73.25
Q 352.25 74.1 352.35 75 354.5 91.65 344.2 104.95 333.8 118.25 317.15 120.35 300.5 122.5 287.25 112.15 273.95 101.8 271.85 85.15 269.7 68.5 280.05 55.2 290.35 41.95 307 39.85 318.75 38.35 328.85 43
L 334.4 29.4
Q 334 29.2 333.6 29
L 334.25 26.65
Q 336.2 19.3 332.9 18.35 Z"/>
</g>

<g id="Layer2_2_FILL">
<path fill="#1A1837" stroke="none" d="
M 339.3 27.3
Q 337.9 27.3 336.85 27.6 333.5 28.35 331.75 31.7 330.75 33.6 330.6 35.85 330.45 37.1 330.6 38.15 330.65 38.7 330.8 39.3 331 39.95 331.5 40.55
L 332.35 41.65 330.35 40.9
Q 327.95 40.05 325.5 39.5 321.15 38.55 316.75 38.55 312.9 38.55 309.25 39.25 304.95 40 300.85 41.8 293.4 44.95 287.8 50.6 282.15 56.25 279 63.65 275.75 71.25 275.75 79.6 275.75 87.95 279 95.5 282.15 102.9 287.8 108.55 293.5 114.2 300.85 117.35 304.95 119.15 309.25 119.9 312.9 120.6 316.75 120.6 325.15 120.6 332.7 117.35 340.05 114.2 345.75 108.55 351 103.3 354.05 96.65 354.3 96.1 354.55 95.5 357.8 87.95 357.8 79.6 357.8 75.45 357 71.55 355.6 64.15 351.4 57.6
L 350.2 55.85 350.55 54.8 352.15 55.1
Q 353.05 55.25 354 55.25 354.95 55.25 355.8 55.1 356.95 54.85 358 54.35
L 358.05 54.35
Q 359.9 53.5 361.1 51.85 361.75 51 362.15 50.1 362.55 49.25 362.75 48.25 363.15 46.25 362.65 44.45
L 362.65 44.4
Q 362.5 44.05 362.45 43.75 362.3 43.35 362.2 43.05 361.4 41.1 359.8 39.1 357.3 35.9 352.7 32.65 349.4 30.05 345.85 28.7 342.3 27.3 339.3 27.3 Z"/>
</g>

<g id="Layer2_3_FILL">
<path fill="#FFFFFF" stroke="none" d="
M 118.1 79.65
Q 118.1 64.25 107.95 53.9 97.55 43.9 82 43.9 72.15 43.9 64.45 47.85 59.9 50.2 56.05 53.9 45.85 64.15 45.85 79.65 45.85 95.25 56.15 105.45 66.35 115.45 82 115.45 95.3 115.45 104.7 108.3 106.4 107 107.95 105.45 118.1 95.25 118.1 79.65
M 82 56.85
Q 91.3 56.85 97.35 63.4 103.1 69.9 103.1 79.65 103.1 89.5 97.35 95.85 91.3 102.45 82 102.45 72.65 102.45 66.75 95.85 65.45 94.45 64.45 92.75 61.1 87.3 61.1 79.65 61.1 72.1 64.45 66.55 65.45 64.9 66.75 63.4 72.7 56.85 82 56.85
M 171.05 64.15
L 179.25 53.4
Q 168.9 43.8 152.2 43.8 140.4 43.8 133 49.95 126.05 55.95 126.05 64.8 126.05 73.75 132.3 78.75 136.65 82.5 145.95 85 149.95 86.15 159.65 88.65 165.95 90.9 165.95 94.85 165.95 97.95 163 100.15 159.65 102.45 153.9 102.45 147 102.45 141.1 99.8 136 97.4 131.85 93.15
L 123.85 104.45
Q 126 106.6 128.4 108.3 138.45 115.5 153.15 115.2 166.8 115.2 174.05 108.8 174.35 108.55 174.65 108.3 180.85 102.55 180.85 92.9 180.85 78.2 161 72.65 151.3 70.55 147.25 69.15 141.1 67.05 141.1 63.5 141.1 60.35 143.6 58.5 146.3 56.6 150.9 56.6 156.15 56.6 161.5 58.4 166.95 60.45 171.05 64.15
M 266.15 44.9
L 245.35 44.9 228.5 86.85 211.7 44.9 191.05 44.9 191.05 114.25 205.6 114.25 205.6 65.75 225.15 114.25 231.6 114.25 251.15 65.75 251.15 114.15 266.15 114.15 266.15 44.9
M 363.45 49.95
Q 361.25 51.85 359.75 54.05 356.5 58.75 356.5 64.8 356.5 71.3 359.75 75.75 360.95 77.35 362.7 78.75 367.2 82.5 376.45 85 381.4 86.4 390.2 88.65 396.4 90.9 396.4 94.85 396.4 97.95 393.45 100.15 390.1 102.45 384.3 102.45 377.55 102.45 371.65 99.8 366.3 97.3 362.35 93.15
L 354.4 104.45
Q 356.55 106.6 358.95 108.3 359.35 108.55 359.75 108.9 369.55 115.5 383.6 115.2 397.25 115.2 404.5 108.8 404.75 108.55 405.1 108.3 411.4 102.55 411.4 92.9 411.4 78.2 391.55 72.65 381.7 70.55 377.85 69.15 371.65 67.05 371.65 63.5 371.65 60.35 374.15 58.5 376.8 56.6 381.4 56.6 386.65 56.6 392.05 58.4 397.5 60.45 401.55 64.15
L 409.7 53.4
Q 399.3 43.8 382.75 43.8 370.95 43.8 363.45 49.95
M 436.25 44.9
L 421.35 44.9 421.35 114.15 436.25 114.15 436.25 44.9
M 488.75 61.4
Q 490.65 62.6 492.35 64.15
L 500.5 53.4
Q 495.4 48.65 488.75 46.25 481.95 43.8 473.55 43.8 461.65 43.8 454.35 49.95 447.25 55.95 447.25 64.8 447.25 73.7 453.5 78.75 458 82.5 467.25 85 472.2 86.4 481 88.65 487.2 90.9 487.2 94.85 487.2 97.95 484.25 100.15 480.9 102.45 475.1 102.45 468.35 102.45 462.45 99.8 457.1 97.3 453.15 93.15
L 445.2 104.45
Q 447.25 106.6 449.65 108.3 459.6 115.5 474.4 115.2 488.05 115.2 495.3 108.8 502.2 102.95 502.2 92.9 502.2 80.8 488.75 74.9 485.85 73.65 482.35 72.65 472.5 70.55 468.65 69.15 462.45 67.05 462.45 63.5 462.45 60.35 464.95 58.5 467.6 56.6 472.2 56.6 477.45 56.6 482.85 58.4 486.05 59.6 488.75 61.4 Z"/>

<path fill="#1A1837" stroke="none" d="
M 340.4 35.25
Q 339.55 34.8 338.65 34.45 335.45 33.2 332.75 33.2 331.5 33.2 330.55 33.5 327.5 34.15 325.95 37.15 325.05 38.9 324.9 40.9 324.75 42.05 324.9 43 324.95 43.45 325.1 44 325.25 44.6 325.7 45.15
L 326.5 46.15 324.7 45.45
Q 322.5 44.7 320.3 44.2 316.4 43.35 312.45 43.35 309.4 43.35 306.55 43.85 306.1 43.9 305.7 43.95 301.8 44.65 298.1 46.25 291.4 49.1 286.35 54.2 281.3 59.25 278.45 65.95 275.55 72.8 275.55 80.3 275.55 87.8 278.45 94.6 281.3 101.3 286.35 106.35 287.4 107.35 288.5 108.3 292.8 112.05 298.1 114.3 301.8 115.9 305.7 116.6 308.95 117.2 312.45 117.2 320 117.2 326.8 114.3 332.1 112.05 336.5 108.3 337.5 107.35 338.55 106.35 343.3 101.65 346 95.65 346.25 95.15 346.45 94.6 349.4 87.8 349.4 80.3 349.4 76.55 348.7 73.05 347.4 66.4 343.65 60.5
L 342.55 58.9 342.85 57.95 344.3 58.25
Q 345.1 58.35 346 58.35 346.85 58.35 347.6 58.25 348.65 58 349.6 57.55 351.3 56.8 352.35 55.3 352.95 54.55 353.3 53.75 353.7 52.95 353.85 52.05 354.2 50.25 353.75 48.65
L 353.75 48.6
Q 353.65 48.3 353.6 48 353.45 47.65 353.35 47.4 352.65 45.65 351.2 43.85 348.95 40.95 344.8 38.05 342.65 36.3 340.4 35.25
M 338.15 36
Q 339.25 36.45 340.4 37.05 342.15 37.95 343.85 39.2 347.5 41.85 349.6 44.25 351.25 46.2 351.95 48.25
L 351.95 48.2
Q 352.05 48.6 352.2 48.95 352.55 50.25 352.25 51.7 351.95 53.1 351.1 54.25 349.6 56.05 347.45 56.45 346.8 56.6 346 56.6 344.85 56.6 343.6 56.3 343.5 56.25 343.45 56.25 343.75 55.55 344.1 54.8 344.3 54.8 344.9 54.8 346.35 54.8 347.15 54.2 348.15 53.4 348.1 52 348.1 50.25 345.35 47.6 343.5 45.9 340.4 43.75 332.45 38.5 330 41 328.65 42.3 329.4 44.35 328.7 44.8 327.85 45.3
L 327.7 45.2 327.7 45.15
Q 327.6 45.05 327.55 44.95 327.25 44.45 327 43.9 326.85 43.7 326.85 43.65 326.35 42.5 326.55 40.9 326.7 39.25 327.45 37.85 328.7 35.5 330.95 35
L 330.9 35
Q 331.75 34.85 332.75 34.85 335.15 34.85 338.15 36
M 331.3 42.3
Q 331.65 41.95 332.7 42.1 332.1 42.55 330.9 43.45 330.85 42.65 331.3 42.3
M 324.7 47.1
L 324.9 47.2
Q 325.15 47.3 326.9 47.95 330.35 46.15 334.75 42.65 336.7 43.45 339.45 45.25 339.95 45.55 340.4 45.85 343.05 47.75 345 49.75 344.75 50.05 344.5 50.4 342.3 53.6 340.65 58.9
L 342.4 61.55
Q 344.85 65.45 346.25 69.9 346.7 71.55 347.05 73.15 347.75 76.55 347.75 80.15 347.75 88.65 344.25 95.65 341.75 100.75 337.4 105.05 335.65 106.8 333.8 108.3 324.6 115.4 312.5 115.4 309 115.4 305.8 114.85 297.8 113.35 291.3 108.3 289.35 106.8 287.6 105.05 277.35 94.75 277.35 80.15 277.35 65.6 287.65 55.2 295.45 47.35 305.8 45.5 306.2 45.45 306.55 45.4 309.4 44.9 312.55 44.9 316.55 44.9 320.3 45.75 322.55 46.3 324.7 47.1
M 346.1 51.2
Q 346.35 51.6 346.35 52.05 346.35 52.55 346 52.9 345.65 53.15 344.9 53.15 345.4 52.25 346.1 51.2
M 300.4 73
L 303.8 76.4 308.4 75.15 309.6 70.55 306.25 67.2 301.7 68.4 300.4 73 Z"/>
</g>

<g id="Layer2_3_MEMBER_0_FILL">
<path fill="#FFFFFF" stroke="none" d="
M 339.1 28.2
Q 337.7 28.25 336.7 28.55 333.3 29.4 331.65 32.75 330.65 34.65 330.45 36.9 330.35 38.15 330.5 39.2 330.6 39.75 330.75 40.35 331 41.05 331.45 41.6
L 332.35 42.7 330.35 42
Q 327.85 41.1 325.45 40.65 321.15 39.75 316.75 39.75 312.85 39.85 309.25 40.55 304.9 41.4 300.9 43.25 293.5 46.45 287.95 52.15 282.35 57.9 279.35 65.35 276.2 72.95 276.3 81.25 276.35 89.6 279.7 97.15 282.95 104.45 288.7 110.05 294.4 115.65 301.8 118.75 305.85 120.45 310.2 121.15 313.85 121.8 317.75 121.75 326.15 121.65 333.6 118.3 340.9 115.05 346.55 109.35 351.7 104.05 354.65 97.35 354.95 96.8 355.15 96.2 358.35 88.6 358.2 80.25 358.15 76.15 357.4 72.2 355.8 64.9 351.6 58.4
L 350.35 56.7 350.7 55.55 352.25 55.9
Q 353.2 56 354.1 56 355.05 56 355.85 55.85 357.05 55.6 358.15 55 360 54.2 361.2 52.5 361.85 51.65 362.2 50.75 362.6 49.9 362.8 48.95 363.15 46.9 362.65 45.05 362.5 44.7 362.4 44.45 362.3 44.05 362.15 43.7 361.35 41.7 359.75 39.8 357.2 36.6 352.55 33.4 349.25 30.9 345.7 29.6 342.15 28.2 339.1 28.2
M 337.1 30.3
Q 338.05 30.05 339.1 30.05 341.8 30 345.15 31.3 348.35 32.45 351.55 34.8 355.6 37.65 357.95 40.3 359.8 42.4 360.6 44.7
L 360.6 44.65
Q 360.75 45.1 360.85 45.5 361.35 46.95 361 48.5 360.7 50.1 359.75 51.3 358.1 53.4 355.8 53.9 355 54.05 354.1 54.05 352.85 54.05 351.35 53.75 351.35 53.7 351.3 53.7 351.65 52.85 351.95 52 352.25 52.1 352.9 52.05 354.5 52.1 355.35 51.3 356.5 50.45 356.35 48.85 356.35 46.9 353.25 44.1 351.25 42.2 347.75 39.8 338.9 34.1 336.2 36.9 334.7 38.4 335.5 40.65 334.8 41.2 333.8 41.8
L 333.65 41.65
Q 333.65 41.6 333.65 41.55 333.6 41.45 333.5 41.4 333.15 40.85 332.8 40.25 332.7 39.95 332.7 39.9 332.15 38.65 332.3 36.9 332.5 35 333.25 33.45 334.65 30.85 337.1 30.3
M 330.6 43.9
Q 330.85 44 332.75 44.7 336.6 42.6 341.5 38.75 343.65 39.55 346.75 41.55 350.35 43.85 352.9 46.45 352.7 46.8 352.45 47.2 350 50.75 348.25 56.7
L 350.25 59.6
Q 352.95 63.85 354.55 68.8 355.1 70.6 355.5 72.4 356.35 76.2 356.35 80.2 356.45 89.55 352.7 97.4 350 103.05 345.2 107.9 333.95 119.55 317.7 119.75 313.85 119.75 310.3 119.15 298.85 117.2 289.95 108.6 278.4 97.3 278.2 81.15 278.05 64.95 289.35 53.35 297.95 44.5 309.35 42.25 312.9 41.55 316.85 41.55 321.25 41.45 325.45 42.4 327.95 42.95 330.35 43.8
L 330.6 43.9
M 337.65 38.35
Q 338.05 38 339.2 38.1 338.55 38.65 337.2 39.65 337.1 38.8 337.65 38.35
M 354.2 48.1
Q 354.4 48.5 354.45 49 354.45 49.55 354.1 49.85 353.7 50.2 352.9 50.25 353.4 49.25 354.2 48.1
M 316.15 93.1
L 306.7 86.05 294.45 102.6
Q 292.45 105.35 295.15 107.35
L 299.15 110.35
Q 301.9 112.4 303.9 109.65
L 316.15 93.1
M 308.75 83.35
L 307.25 85.35 316.7 92.4 318.2 90.4 308.75 83.35
M 299.25 59.85
L 295.25 61.6 294.75 65.95 298.25 68.6 302.3 66.85 302.85 62.45 299.25 59.85
M 340 85.3
L 330.2 78.2 330.2 78.25 312.65 65.2 312.65 65.15 312.15 64.8
Q 312.25 63.9 312.05 62.95 311.3 57.8 307.15 54.7 302.95 51.55 297.8 52.35 297 52.45 296.3 52.6 296.1 52.7 295.95 52.9
L 295.1 54.1
Q 294.95 54.35 294.95 54.6 295 54.85 295.2 55.05
L 304.2 61.75 303.55 67.7 298 70.05 289 63.4
Q 288.8 63.25 288.55 63.25 288.3 63.3 288.1 63.55
L 287.15 64.75
Q 287.1 64.9 287.05 65.1 287.1 65.85 287.2 66.65 287.95 71.8 292.15 74.85 296.35 77.95 301.5 77.2 302.4 77.05 303.3 76.75
L 330.8 97.4
Q 331.7 100.15 334.15 101.95 337.2 104.25 341.05 103.7 344.85 103.1 347.05 100 349.35 97 348.8 93.1 348.2 89.35 345.15 87.1 342.75 85.3 340 85.3
M 339 89.9
Q 340.85 89.65 342.45 90.75 343.95 91.95 344.25 93.85 344.5 95.75 343.4 97.3 342.25 98.85 340.3 99.15 338.4 99.45 336.85 98.3 335.3 97.15 335.05 95.25 334.75 93.3 335.9 91.75 337.05 90.15 339 89.9
M 338.7 59.55
L 343.55 51.25 339.05 48 332.2 54.8
Q 331.2 56.15 331.15 57.6 331.1 58.75 331.7 59.45
L 323.25 70.95 325.85 72.85 334.3 61.35
Q 335.15 61.7 336.3 61.4 337.65 60.95 338.7 59.55 Z"/>
</g>

<g id="Layer1_0_FILL">
<path fill="#990000" stroke="none" d="
M 243.65 100.4
L 247.5 100.4 247.5 83.55 242.95 94.85 243.65 100.4
M 268.85 117.7
L 247.35 117.7 253.3 123.3 265.5 123.3 268.85 117.7 Z"/>
</g>

<g id="Layer1_1_FILL">
<path fill="#1A1837" stroke="none" d="
M 269.05 43.2
L 267.25 43.2 267.25 82.3 274.45 82.3 281.65 50.75 277.05 55.15
Q 271.1099609375 62.8341796875 269.05 71.1
L 269.05 43.2
M 353.2 71.9
L 352.75 83.2 346.95 102.55 350.3 105.6 363.15 90.85
Q 368.65 97.2 374.4 98.5
L 376.2 92.2 373.5 86.8
Q 360.95 82.05 353.2 71.9 Z"/>
</g>

<g id="bolton_0_Layer0_0_FILL">
<path fill="#1A1837" stroke="none" d="
M -51.65 26.3
L -51.65 1.65 -73.05 -10.7 -94.4 1.65 -94.4 26.3 -73.05 38.65 -51.65 26.3 Z"/>
</g>

<g id="bolton_0_Layer0_1_FILL">
<path fill="#990000" stroke="none" d="
M -6.1 -82.8
L -27.5 -95.15 -48.85 -82.8 -48.85 -58.15 -27.5 -45.8 -6.1 -58.15 -6.1 -82.8 Z"/>
</g>

<g id="bolton_0_Layer0_2_FILL">
<path fill="#B32727" stroke="none" d="
M -7.9 -81.75
L -27.45 -93 -47 -81.75 -47 -70.5 -42.5 -70.5
Q -42.1408203125 -76.0591796875 -38.1 -80.1 -33.7 -84.5 -27.5 -84.5 -21.3 -84.5 -16.9 -80.1 -12.8591796875 -76.0591796875 -12.55 -70.5
L -7.9 -70.5 -7.9 -81.75 Z"/>
</g>

<g id="bolton_0_Layer0_3_FILL">
<path fill="#1A1837" stroke="none" d="
M -16.55 -59.15
Q -12 -63.6 -12 -69.95 -12 -70.2 -12 -70.45
L -42.7 -70.45
Q -42.7 -70.2 -42.7 -69.95 -42.7 -63.6 -38.2 -59.15 -33.75 -54.6 -27.35 -54.6 -21 -54.6 -16.55 -59.15 Z"/>
</g>

<g id="bolton_0_Layer0_4_FILL">
<path fill="#B32727" stroke="none" d="
M 8.7 -7.1
Q 5.65 -10.55 0.9 -11.2 -4.2 -11.85 -8.3 -8.7 -12.4 -5.55 -13.1 -0.45 -13.7 4.3 -11.1 8.1
L 8.7 -7.1 Z"/>

<path fill="#990000" stroke="none" d="
M 9.25 -6.4
Q 8.95 -6.75 8.7 -7.1
L -11.1 8.1
Q -10.9 8.5 -10.6 8.85 -7.5 12.9 -2.35 13.55 2.8 14.3 6.9 11.15 11 8 11.65 2.8 12.35 -2.35 9.25 -6.4 Z"/>
</g>

<g id="bolton_0_Layer0_4_MEMBER_0_FILL">
<path fill="#990000" stroke="none" d="
M -88.5 -13.5
Q -85.2 -13.5 -82.85 -15.85 -80.5 -18.2 -80.5 -21.5 -80.5 -24.8 -82.85 -27.15 -85.2 -29.5 -88.5 -29.5 -91.8 -29.5 -94.15 -27.15 -96.5 -24.8 -96.5 -21.5 -96.5 -18.2 -94.15 -15.85 -91.8 -13.5 -88.5 -13.5 Z"/>
</g>

<path id="Layer2_0_1_STROKES" stroke="#1A1837" stroke-width="4" stroke-linejoin="miter" stroke-linecap="square" stroke-miterlimit="3" fill="none" d="
M 363.05 72.4
L 363.15 72.4 376.55 71.4 377.1 76
Q 377.55 79.5 370 80.45
L 367.45 80.75
Q 367.45 83.85 367.15 86.85
L 369.3 87.45
Q 376.7 89.45 375.8 92.8
L 373.65 100.8
Q 372.75 104.1 365.4 102.15
L 363.15 101.55
Q 361.8 104.65 360.05 107.65
L 362.1 109.25
Q 368.15 113.95 365.95 116.65
L 360.9 123.15
Q 358.8 125.9 352.8 121.2
L 350.75 119.65
Q 348.5 121.95 346 123.85
L 347.2 125.9
Q 350.95 132.45 347.95 134.25
L 340.85 138.3
Q 337.85 140.1 334 133.45
L 332.85 131.4
Q 329.75 132.6 326.55 133.4
L 326.9 136.05
Q 327.85 143.6 324.35 144.05
L 316.2 145.1
Q 312.75 145.55 311.8 138
L 311.5 135.35
Q 308.2 135.35 305.1 134.95
L 304.45 137.45
Q 302.45 144.85 299.05 143.9
L 291.1 141.75
Q 287.75 140.9 289.7 133.5
L 290.45 130.95
Q 287.4 129.65 284.6 127.95
L 282.85 130.15
Q 278.25 136.1 275.5 134.05
L 269 129
Q 266.25 126.85 270.9 120.85
L 272.6 118.65
Q 270.35 116.35 268.35 113.9
L 266 115.3
Q 259.35 119.05 257.6 116.05
L 253.55 108.95
Q 251.8 105.85 258.35 102.05
L 260.8 100.7
Q 259.6 97.65 258.8 94.5
L 256.1 94.85
Q 248.55 95.8 248.1 92.25
L 247.1 84.1
Q 246.65 80.7 254.2 79.75
L 256.95 79.4
Q 256.9 76.2 257.3 73.15
L 254.55 72.4
Q 247.2 70.45 248.1 67.05
L 250.25 59.1
Q 251.15 55.75 258.5 57.7
L 261.2 58.45
Q 262.5 55.45 264.2 52.6
L 262.05 50.95
Q 256.1 46.25 258.15 43.55
L 263.25 37.05
Q 265.35 34.3 271.35 38.95
L 273.45 40.6
Q 275.65 38.4 278.05 36.5
L 276.7 34.2
Q 272.85 27.6 275.85 25.85
L 283 21.75
Q 286 19.95 289.8 26.6
L 291.15 28.85
Q 294.35 27.6 297.7 26.7
L 297.4 24.1
Q 296.45 16.55 299.9 16.1
L 308.05 15.05
Q 311.55 14.6 312.5 22.2
L 312.8 24.75
Q 315.9 24.75 318.9 25.1
L 319.55 22.7
Q 321.5 15.35 324.85 16.2
L 332.9 18.35
Q 336.2 19.3 334.25 26.65
L 333.6 29
M 352.1 73.25
L 352.35 73.2
M 352.3 72.8
L 348.7 61.1 359.55 55.7 363.05 72.4 352.35 73.2"/>

<path id="Layer2_0_2_STROKES" stroke="#1A1837" stroke-width="5" stroke-linejoin="miter" stroke-linecap="square" stroke-miterlimit="3" fill="none" d="
M 328.85 43
Q 318.75 38.35 307 39.85 290.35 41.95 280.05 55.2 269.7 68.5 271.85 85.15 273.95 101.8 287.25 112.15 300.5 122.5 317.15 120.35 333.8 118.25 344.2 104.95 354.5 91.65 352.35 75 352.25 74.1 352.1 73.25"/>

<path id="Layer2_1_1_STROKES" stroke="#1A1837" stroke-width="7" stroke-linejoin="miter" stroke-linecap="square" stroke-miterlimit="3" fill="none" d="
M 473.4 43.8
Q 461.5 43.8 454.15 49.95 447.1 55.95 447.1 64.8 447.1 73.7 453.3 78.75 457.8 82.5 467.05 85 472.05 86.4 480.8 88.65 487 90.9 487 94.85 487 97.95 484.05 100.15 480.7 102.45 474.9 102.45 468.15 102.45 462.25 99.8 456.95 97.3 453 93.15
L 445 104.45
Q 455.85 115.6 474.25 115.2 487.85 115.2 495.1 108.8 502 102.95 502 92.9 502 78.2 482.15 72.65 472.3 70.55 468.45 69.15 462.25 67.05 462.25 63.5 462.25 60.35 464.8 58.5 467.45 56.6 472.05 56.6 477.3 56.6 482.65 58.4 488.1 60.45 492.15 64.15
L 500.35 53.4
Q 489.95 43.8 473.4 43.8 Z
M 436.05 44.9
L 421.15 44.9 421.15 114.15 436.05 114.15 436.05 44.9 Z
M 305.5 43.95
Q 308.8 43.35 312.25 43.35 316.2 43.35 320.15 44.2 322.35 44.7 324.5 45.45
L 326.3 46.15 325.55 45.15
Q 325.1 44.6 324.9 44 324.75 43.45 324.75 43 324.6 42.05 324.75 40.9 324.85 38.9 325.75 37.15 327.35 34.15 330.35 33.5 331.3 33.2 332.55 33.2 335.25 33.2 338.45 34.45 341.65 35.7 344.65 38.05 348.75 40.95 351 43.85 352.45 45.65 353.2 47.4 353.25 47.65 353.4 48 353.45 48.3 353.6 48.6
L 353.6 48.65
Q 354.05 50.25 353.7 52.05 353.5 52.95 353.15 53.75 352.75 54.55 352.2 55.3 351.1 56.8 349.45 57.55
L 349.4 57.55
Q 348.45 58 347.4 58.25 346.65 58.35 345.8 58.35 344.95 58.35 344.15 58.25
L 342.7 57.95 342.4 58.9 343.45 60.5
Q 347.25 66.4 348.5 73.05 349.2 76.55 349.2 80.3 349.2 87.8 346.3 94.6 346.05 95.15 345.85 95.65 343.1 101.65 338.35 106.35 333.25 111.45 326.6 114.3 319.8 117.2 312.25 117.2 308.8 117.2 305.5 116.6 301.65 115.9 297.95 114.3 291.35 111.45 286.2 106.35 281.1 101.3 278.25 94.6 275.35 87.8 275.35 80.3 275.35 72.8 278.25 65.95 281.1 59.25 286.2 54.2 291.25 49.1 297.95 46.25 301.65 44.65 305.5 43.95 Z
M 356.35 64.8
Q 356.35 73.75 362.5 78.75 367 82.5 376.25 85 381.25 86.4 390 88.65 396.2 90.9 396.2 94.85 396.2 97.95 393.25 100.15 389.9 102.45 384.1 102.45 377.35 102.45 371.45 99.8 366.15 97.3 362.2 93.15
L 354.2 104.45
Q 365.35 115.6 383.45 115.2 397.05 115.2 404.3 108.8 411.2 102.95 411.2 92.9 411.2 78.2 391.35 72.65 381.5 70.55 377.65 69.15 371.45 67.05 371.45 63.5 371.45 60.35 374 58.5 376.65 56.6 381.25 56.6 386.5 56.6 391.85 58.4 397.3 60.45 401.35 64.15
L 409.55 53.4
Q 399.15 43.8 382.6 43.8 370.8 43.8 363.25 49.95 356.35 55.95 356.35 64.8 Z
M 228.3 86.85
L 211.5 44.9 190.85 44.9 190.85 114.25 205.45 114.25 205.45 65.75 224.95 114.25 231.4 114.25 250.95 65.75 250.95 114.15 266 114.15 266 44.9 245.2 44.9 228.3 86.85 Z
M 147.1 69.15
Q 140.9 67.05 140.9 63.5 140.9 60.35 143.45 58.5 146.1 56.6 150.75 56.6 155.95 56.6 161.3 58.4 166.75 60.45 170.85 64.15
L 179.05 53.4
Q 168.75 43.8 152.05 43.8 140.2 43.8 132.8 49.95 125.9 55.95 125.9 64.8 125.9 73.75 132.1 78.75 136.45 82.5 145.8 85 149.8 86.15 159.45 88.65 165.75 90.9 165.75 94.85 165.75 97.95 162.8 100.15 159.45 102.45 153.7 102.45 146.8 102.45 140.9 99.8 135.85 97.4 131.65 93.15
L 123.7 104.45
Q 134.75 115.6 153 115.2 166.65 115.2 173.9 108.8 180.65 102.95 180.65 92.9 180.65 78.2 160.8 72.65 151.15 70.55 147.1 69.15 Z
M 107.8 105.45
Q 117.9 95.25 117.9 79.65 117.9 64.25 107.8 53.9 97.4 43.9 81.8 43.9 66.1 43.9 55.9 53.9 45.65 64.15 45.65 79.65 45.65 95.25 56 105.45 66.15 115.45 81.8 115.45 97.55 115.45 107.8 105.45 Z
M 60.95 79.65
Q 60.95 69.85 66.55 63.4 72.5 56.85 81.8 56.85 91.15 56.85 97.15 63.4 102.95 69.9 102.95 79.65 102.95 89.5 97.15 95.85 91.15 102.45 81.8 102.45 72.45 102.45 66.55 95.85 60.95 89.55 60.95 79.65 Z"/>

<path id="bolton_0_Layer0_1_1_STROKES" stroke="#1A1837" stroke-width="3" stroke-linejoin="miter" stroke-linecap="square" stroke-miterlimit="3" fill="none" d="
M -27.5 -45.8
L -48.85 -58.15 -48.85 -82.8 -27.5 -95.15 -6.1 -82.8 -6.1 -58.15 -27.5 -45.8 Z"/>
</defs>

<g transform="matrix( 1, 0, 0, 1, 0,0) ">
<use xlink:href="#Layer7_0_FILL"/>
</g>

<g transform="matrix( 1, 0, 0, 1, -26,0) ">
<use xlink:href="#Layer6_0_FILL"/>
</g>

<g transform="matrix( 1, 0, 0, 1, -26,0) ">
<use xlink:href="#Layer6_1_FILL"/>
</g>

<g transform="matrix( 1, 0, 0, 1, 0,0) ">
<use xlink:href="#Layer5_0_FILL"/>
</g>

<g transform="matrix( 0.427276611328125, 0, 0, 0.427276611328125, 242.15,9.25) ">
<use xlink:href="#Layer5_1_FILL"/>
</g>

<g transform="matrix( 1, 0, 0, 1, 0,0) ">
<use xlink:href="#Layer5_2_FILL"/>
</g>

<g transform="matrix( 0.3034515380859375, 0, 0, 0.3034515380859375, -20.6,109.75) ">
<use xlink:href="#Layer5_3_FILL"/>
</g>

<g transform="matrix( 0.79437255859375, 0, 0, 0.79437255859375, 379.8,147.45) ">
<g transform="matrix( 1, 0, 0, 1, 0,0) ">
<use filter="url(#Filter_1)" xlink:href="#toolkitbg_0_Layer0_0_FILL"/>
</g>
</g>

<g transform="matrix( 1, 0, 0, 1, 0,0) ">
<use xlink:href="#Layer4_1_FILL"/>
</g>

<g transform="matrix( 1, 0, 0, 1, 0,0) ">
<use xlink:href="#Layer3_0_FILL"/>
</g>

<g transform="matrix( 1, 0, 0, 1, 0,0) ">
<use xlink:href="#Layer2_0_FILL"/>

<use xlink:href="#Layer2_0_1_STROKES"/>

<use xlink:href="#Layer2_0_2_STROKES"/>
</g>

<g transform="matrix( 1, 0, 0, 1, 0,0) ">
<use xlink:href="#Layer2_1_1_STROKES"/>
</g>

<g transform="matrix( 0.9003448486328125, 0, 0, 0.9003448486328125, 27.3,8) ">
<use xlink:href="#Layer2_2_FILL"/>
</g>

<g transform="matrix( 1, 0, 0, 1, 0,0) ">
<use xlink:href="#Layer2_3_FILL"/>
</g>

<g transform="matrix( 0.9003448486328125, 0, 0, 0.9003448486328125, 27.3,8) ">
<use xlink:href="#Layer2_3_MEMBER_0_FILL"/>
</g>

<g transform="matrix( 1, 0, 0, 1, 0,0) ">
<use xlink:href="#Layer1_0_FILL"/>
</g>

<g transform="matrix( 1, 0, 0, 1, 0,0) ">
<use xlink:href="#Layer1_1_FILL"/>
</g>

<g transform="matrix( 0.5262298583984375, 0, 0, 0.5262298583984375, 25.45,28.3) ">
<g transform="matrix( 1, 0, 0, 1, 76,-10) ">
<use xlink:href="#bolton_0_Layer0_0_FILL"/>
</g>

<g transform="matrix( 1, 0, 0, 1, 27.45,70.45) ">
<use xlink:href="#bolton_0_Layer0_1_FILL"/>

<use xlink:href="#bolton_0_Layer0_1_1_STROKES"/>
</g>

<g transform="matrix( 1, 0, 0, 1, 27.45,70.45) ">
<use xlink:href="#bolton_0_Layer0_2_FILL"/>
</g>

<g transform="matrix( 0.770477294921875, -0.5903778076171875, 0.60821533203125, 0.79376220703125, 62.6,40.2) ">
<use xlink:href="#bolton_0_Layer0_3_FILL"/>
</g>

<g transform="matrix( 1, 0, 0, 1, 0,0) ">
<use xlink:href="#bolton_0_Layer0_4_FILL"/>
</g>

<g transform="matrix( 1.3125, 0, 0, 1.3125, 115.65,29.7) ">
<use xlink:href="#bolton_0_Layer0_4_MEMBER_0_FILL"/>
</g>
</g>

<g transform="matrix( 0.5262298583984375, 0, 0, 0.5262298583984375, 25.45,173.3) ">
<g transform="matrix( 1, 0, 0, 1, 76,-10) ">
<use xlink:href="#bolton_0_Layer0_0_FILL"/>
</g>

<g transform="matrix( 1, 0, 0, 1, 27.45,70.45) ">
<use xlink:href="#bolton_0_Layer0_1_FILL"/>

<use xlink:href="#bolton_0_Layer0_1_1_STROKES"/>
</g>

<g transform="matrix( 1, 0, 0, 1, 27.45,70.45) ">
<use xlink:href="#bolton_0_Layer0_2_FILL"/>
</g>

<g transform="matrix( 0.770477294921875, -0.5903778076171875, 0.60821533203125, 0.79376220703125, 62.6,40.2) ">
<use xlink:href="#bolton_0_Layer0_3_FILL"/>
</g>

<g transform="matrix( 1, 0, 0, 1, 0,0) ">
<use xlink:href="#bolton_0_Layer0_4_FILL"/>
</g>

<g transform="matrix( 1.3125, 0, 0, 1.3125, 115.65,29.7) ">
<use xlink:href="#bolton_0_Layer0_4_MEMBER_0_FILL"/>
</g>
</g>

<g transform="matrix( -0.5262298583984375, 0, 0, 0.5262298583984375, 597.95,28.3) ">
<g transform="matrix( 1, 0, 0, 1, 76,-10) ">
<use xlink:href="#bolton_0_Layer0_0_FILL"/>
</g>

<g transform="matrix( 1, 0, 0, 1, 27.45,70.45) ">
<use xlink:href="#bolton_0_Layer0_1_FILL"/>

<use xlink:href="#bolton_0_Layer0_1_1_STROKES"/>
</g>

<g transform="matrix( 1, 0, 0, 1, 27.45,70.45) ">
<use xlink:href="#bolton_0_Layer0_2_FILL"/>
</g>

<g transform="matrix( 0.770477294921875, -0.5903778076171875, 0.60821533203125, 0.79376220703125, 62.6,40.2) ">
<use xlink:href="#bolton_0_Layer0_3_FILL"/>
</g>

<g transform="matrix( 1, 0, 0, 1, 0,0) ">
<use xlink:href="#bolton_0_Layer0_4_FILL"/>
</g>

<g transform="matrix( 1.3125, 0, 0, 1.3125, 115.65,29.7) ">
<use xlink:href="#bolton_0_Layer0_4_MEMBER_0_FILL"/>
</g>
</g>

<g transform="matrix( -0.5262298583984375, 0, 0, 0.5262298583984375, 597.95,173.3) ">
<g transform="matrix( 1, 0, 0, 1, 76,-10) ">
<use xlink:href="#bolton_0_Layer0_0_FILL"/>
</g>

<g transform="matrix( 1, 0, 0, 1, 27.45,70.45) ">
<use xlink:href="#bolton_0_Layer0_1_FILL"/>

<use xlink:href="#bolton_0_Layer0_1_1_STROKES"/>
</g>

<g transform="matrix( 1, 0, 0, 1, 27.45,70.45) ">
<use xlink:href="#bolton_0_Layer0_2_FILL"/>
</g>

<g transform="matrix( 0.770477294921875, -0.5903778076171875, 0.60821533203125, 0.79376220703125, 62.6,40.2) ">
<use xlink:href="#bolton_0_Layer0_3_FILL"/>
</g>

<g transform="matrix( 1, 0, 0, 1, 0,0) ">
<use xlink:href="#bolton_0_Layer0_4_FILL"/>
</g>

<g transform="matrix( 1.3125, 0, 0, 1.3125, 115.65,29.7) ">
<use xlink:href="#bolton_0_Layer0_4_MEMBER_0_FILL"/>
</g>
</g>
</svg>
